<?xml version="1.0" encoding="UTF-8" standalone="no"?>
<!-- Created with Inkscape (http://www.inkscape.org/) -->

<svg
   width="241.74258mm"
   height="129.9957mm"
   viewBox="0 0 241.74258 129.9957"
   version="1.1"
   id="svg1"
   inkscape:version="1.3 (0e150ed6c4, 2023-07-21)"
   sodipodi:docname="fes_logo_txt_Outline.svg"
   inkscape:export-filename="..\..\..\Users\tomoo\OneDrive\www\kamonegi\img\logo\fes_logo_txt.png"
   inkscape:export-xdpi="96"
   inkscape:export-ydpi="96"
   xmlns:inkscape="http://www.inkscape.org/namespaces/inkscape"
   xmlns:sodipodi="http://sodipodi.sourceforge.net/DTD/sodipodi-0.dtd"
   xmlns="http://www.w3.org/2000/svg"
   xmlns:svg="http://www.w3.org/2000/svg">
  <sodipodi:namedview
     id="namedview1"
     pagecolor="#b0b0b0"
     bordercolor="#000000"
     borderopacity="0.25"
     inkscape:showpageshadow="2"
     inkscape:pageopacity="0.0"
     inkscape:pagecheckerboard="0"
     inkscape:deskcolor="#d1d1d1"
     inkscape:document-units="mm"
     showgrid="true"
     inkscape:zoom="0.69397446"
     inkscape:cx="590.79984"
     inkscape:cy="373.93307"
     inkscape:window-width="1800"
     inkscape:window-height="1106"
     inkscape:window-x="-11"
     inkscape:window-y="-11"
     inkscape:window-maximized="1"
     inkscape:current-layer="layer1">
    <inkscape:grid
       id="grid1"
       units="mm"
       originx="-113.38583"
       originy="-94.488198"
       spacingx="1"
       spacingy="1"
       empcolor="#0099e5"
       empopacity="0.30196078"
       color="#0099e5"
       opacity="0.14901961"
       empspacing="5"
       dotted="false"
       gridanglex="30"
       gridanglez="30"
       visible="true" />
  </sodipodi:namedview>
  <defs
     id="defs1" />
  <g
     inkscape:label="Layer 1"
     inkscape:groupmode="layer"
     id="layer1"
     transform="translate(-30.000001,-25.000002)">
    <path
       style="font-size:68.7917px;line-height:78px;font-family:'site seeing shop';-inkscape-font-specification:'site seeing shop';letter-spacing:7.9375px;word-spacing:0.41275px;display:inline;fill:#008000;stroke-width:0;paint-order:stroke fill markers"
       d="M 45.384081,98.427083 V 53.08099 H 29.999999 V 38.7046 H 45.384081 V 29.904099 H 59.357395 V 38.7046 q 4.568199,-0.201539 9.203577,0.06718 4.702558,0.201538 7.725631,4.097943 3.090252,3.896405 6.516402,6.852299 3.493328,2.955893 6.717939,6.516401 l 0.134359,0.201538 V 98.427083 H 75.749168 V 63.023541 Q 74.069683,61.075339 72.12148,59.463033 70.240457,57.783548 68.560972,55.700987 66.881487,53.551246 64.463029,53.215349 62.044571,52.879452 59.357395,53.08099 V 98.427083 Z M 93.417349,56.238422 72.390198,34.741015 82.735825,25.000003 103.3599,46.564589 Z m 46.028221,41.987123 -9.40512,-9.002039 V 69.80866 H 111.90202 V 57.649189 h 18.13843 V 51.468685 H 111.90202 V 39.309214 h 18.13843 v -9.472295 h 15.6528 v 9.472295 h 24.38612 v 12.159471 h -24.38612 v 6.180504 h 24.38612 V 69.80866 h -24.38612 v 14.645109 q 0.60462,2.754355 9.94255,1.612305 l 5.97897,-5.441531 9.40512,10.144089 -7.45692,7.456913 z M 185.00353,97.62093 V 29.635381 h 15.24972 v 48.100448 h 0.40308 l 21.09433,-20.489716 q 2.01538,2.619997 5.03845,4.904096 3.09025,2.21692 3.96359,5.374352 0.94051,3.090252 0.53743,6.785119 -0.40308,3.627687 0,7.053836 h 11.15178 V 97.217854 H 215.83887 V 82.572746 h -0.40308 q -3.22461,3.090252 -6.38204,6.516401 -3.15743,3.426149 -6.5164,6.382043 -3.29179,2.955893 -8.26307,2.21692 -4.97127,-0.671794 -9.27075,-0.06718 z m 71.08613,0.806153 V 82.572746 h 15.6528 v 15.854337 z m 0,-23.445609 V 29.635381 h 15.6528 v 45.346093 z"
       id="text59"
       inkscape:label="かたひがし"
       aria-label="かもん！" />
    <path
       id="rect2"
       style="display:inline;fill:#008000;stroke:none;stroke-width:1.0933;paint-order:stroke fill markers"
       inkscape:label="文字背景"
       d="m 30.000236,110 v 44.99571 H 271.74259 V 110 Z m 135.876464,9.32037 h 2.8422 v 5.45186 h -2.8422 z m 3.46232,0 h 2.73885 v 5.45186 h -2.73885 z m -52.84432,0.31005 h 4.78007 v 2.19625 h 1.47278 v 5.06429 l 4.85758,-4.41833 h 10.67118 v 14.44356 h 2.91972 v 5.19348 h -2.91972 v 3.95325 h -9.81852 v -9.14673 h 4.98678 v -9.27592 h -3.69487 l -8.47493,8.34574 v 9.89604 h -4.78007 v -3.95325 h -1.08521 l -0.85266,0.64596 -3.43648,-3.7207 c 0.44786,-0.53399 1.10243,-1.19717 1.9637,-1.98955 0.8785,-0.79237 1.72256,-1.64503 2.53215,-2.55798 0.82682,-0.91294 1.14549,-1.98954 0.95601,-3.22978 -0.17226,-1.25745 -0.17226,-2.61827 0,-4.08243 h -4.78007 v -5.16765 h 4.70256 z m -70.135256,0.0258 h 6.149496 v 6.43372 H 65.944812 V 146.1146 H 59.924508 V 130.84421 H 52.50894 v 15.27039 h -6.149496 v -15.27039 h -7.002156 v -4.75423 h 7.002156 z m 27.342,0.10336 H 103.2862 v 4.52168 H 89.927844 v 3.92741 H 103.2862 v 4.52169 H 89.927844 v 8.9917 H 103.2862 v 4.52169 H 85.6387 V 132.7304 H 73.701444 v -4.52169 H 85.6387 V 124.2813 H 73.701444 Z m 80.961466,0.0258 h 5.29684 v 1.11105 h 5.34851 v 5.4777 h -5.34851 v 1.60197 h 5.27099 v 5.45186 h -5.27099 c 0.0517,0.58567 0.0517,1.15411 0,1.70532 -0.0517,0.53399 -0.31867,0.98185 -0.80099,1.34359 -0.48231,0.36173 -0.91295,0.7407 -1.29191,1.13688 -0.37896,0.39618 -0.72347,0.81821 -1.03353,1.26608 l 4.26331,4.47001 -3.79822,3.77238 -8.26823,-8.50078 5.06429,-5.19348 h -4.70256 v -5.45186 h 5.271 v -1.60197 h -5.19348 v -5.4777 h 5.19348 z m 34.39583,0.25839 h 5.91696 v 2.66133 h 6.95048 v 4.5992 h -6.95048 v 1.47278 h 6.95048 v 4.62504 h -6.95048 v 1.70533 h 6.95048 v 4.5992 h -6.95048 v 6.0203 h -14.98617 v -10.6195 h 9.06921 v -1.70533 h -9.06921 v -4.62504 h 9.06921 v -1.47278 h -9.06921 v -4.5992 h 9.06921 z m 53.98637,0 h 5.94279 v 17.72501 h -5.94279 z m 13.97848,0.0775 h 5.91695 v 17.88005 l -7.64811,7.72562 -3.66903,-3.90157 5.40019,-5.40019 z m -46.82402,1.98954 h 24.6755 v 11.18795 l -10.49032,10.33529 -3.53983,-3.77238 c 2.72162,-2.82497 4.61643,-4.67672 5.68441,-5.55522 1.0852,-0.8785 1.84313,-1.8948 2.27376,-3.04891 0.44786,-1.1541 0.51676,-2.45463 0.2067,-3.90157 h -18.81022 z m -24.26725,17.59583 v 1.4211 h 3.12642 v -1.4211 z" />
  </g>
</svg>
