<?xml version="1.0" encoding="UTF-8" standalone="no"?>
<!-- Created with Inkscape (http://www.inkscape.org/) -->

<svg
   width="243.34392mm"
   height="144.99998mm"
   viewBox="0 0 243.34392 144.99998"
   version="1.1"
   id="svg1"
   inkscape:version="1.3 (0e150ed6c4, 2023-07-21)"
   sodipodi:docname="Tシャツプリント用_文字なし.svg"
   xmlns:inkscape="http://www.inkscape.org/namespaces/inkscape"
   xmlns:sodipodi="http://sodipodi.sourceforge.net/DTD/sodipodi-0.dtd"
   xmlns="http://www.w3.org/2000/svg"
   xmlns:svg="http://www.w3.org/2000/svg">
  <sodipodi:namedview
     id="namedview1"
     pagecolor="#ffffff"
     bordercolor="#000000"
     borderopacity="0.25"
     inkscape:showpageshadow="2"
     inkscape:pageopacity="0.0"
     inkscape:pagecheckerboard="0"
     inkscape:deskcolor="#d1d1d1"
     inkscape:document-units="mm"
     showgrid="true"
     inkscape:zoom="0.69397446"
     inkscape:cx="664.28957"
     inkscape:cy="425.80817"
     inkscape:window-width="1800"
     inkscape:window-height="1106"
     inkscape:window-x="-11"
     inkscape:window-y="-11"
     inkscape:window-maximized="1"
     inkscape:current-layer="layer4">
    <inkscape:grid
       id="grid1"
       units="mm"
       originx="-119.64496"
       originy="-132.28348"
       spacingx="1"
       spacingy="1"
       empcolor="#0099e5"
       empopacity="0.30196078"
       color="#0099e5"
       opacity="0.14901961"
       empspacing="5"
       dotted="false"
       gridanglex="30"
       gridanglez="30"
       visible="true"
       snapvisiblegridlinesonly="false" />
  </sodipodi:namedview>
  <defs
     id="defs1" />
  <g
     inkscape:groupmode="layer"
     id="layer3"
     inkscape:label="東屋"
     transform="translate(-30.969323,-46.375862)">
    <rect
       style="fill:none;stroke:#0044aa;stroke-width:1;stroke-dasharray:none;paint-order:stroke fill markers"
       id="rect4"
       width="20.978691"
       height="10.999998"
       x="199.83455"
       y="81.87587"
       inkscape:label="外側柱"
       inkscape:export-filename="..\..\..\Users\tomoo\OneDrive\www\kamonegi\img\sanbouyama\sanbouyama_print_img.png"
       inkscape:export-xdpi="96"
       inkscape:export-ydpi="96" />
    <rect
       style="fill:none;stroke:#0044aa;stroke-width:1;stroke-dasharray:none;paint-order:stroke fill markers"
       id="rect6"
       width="9.0866604"
       height="10.999998"
       x="205.76991"
       y="81.87587"
       inkscape:label="内側柱" />
    <path
       style="display:inline;fill:#0044aa;stroke:none;stroke-width:1.06934;stroke-dasharray:none;paint-order:stroke fill markers"
       d="m 199.31327,87.375858 0.0213,6 h 21.95738 l 0.0213,-6 z"
       id="path7"
       sodipodi:nodetypes="ccccc"
       inkscape:label="東屋下" />
    <path
       style="display:inline;fill:#0044aa;stroke:none;stroke-width:0.854573;stroke-dasharray:none;paint-order:stroke fill markers"
       d="m 210.31325,76.375858 -15.99999,5.99999 h 31.99999 z"
       id="path5"
       sodipodi:nodetypes="cccc"
       inkscape:label="東屋屋根" />
    <rect
       style="fill:none;stroke:#0044aa;stroke-width:1;stroke-dasharray:none;paint-order:stroke fill markers"
       id="rect3"
       width="18.999996"
       height="12.894177"
       x="96.813271"
       y="53.376404"
       inkscape:label="砦枠" />
    <rect
       style="fill:none;stroke:#0044aa;stroke-width:0.999999;stroke-dasharray:none;paint-order:stroke fill markers"
       id="rect1-2"
       width="18.999996"
       height="8.8947191"
       x="96.813271"
       y="57.375854"
       inkscape:label="砦枠" />
    <rect
       style="fill:none;stroke:#0044aa;stroke-width:0.999992;stroke-dasharray:none;paint-order:stroke fill markers"
       id="rect2-1"
       width="7.0000114"
       height="8.8947191"
       x="102.81326"
       y="57.375854"
       inkscape:label="砦枠" />
    <path
       style="fill:#0044aa;stroke:none;stroke-width:1.06934;stroke-dasharray:none;paint-order:stroke fill markers"
       d="m 96.313266,61.375858 -5,22 h 29.999994 l -5,-22 z"
       id="path3"
       sodipodi:nodetypes="ccccc"
       inkscape:label="砦下" />
    <path
       style="fill:#0044aa;stroke:none;stroke-width:0.785542;stroke-dasharray:none;paint-order:stroke fill markers"
       d="M 106.31326,46.375862 91.313266,54.375858 H 121.31326 Z"
       id="path4"
       sodipodi:nodetypes="cccc"
       inkscape:label="砦屋根" />
    <path
       id="path6"
       style="display:inline;fill:#0044aa;stroke-width:2.81963;paint-order:stroke fill markers"
       d="M 108.60448,79.375858 A 97.029353,86.546472 0 0 0 30.969323,114.37586 H 186.54625 A 97.029353,86.546472 0 0 0 108.60448,79.375858 Z"
       inkscape:label="左山" />
    <path
       id="circle6"
       style="display:inline;fill:#0044aa;stroke-width:2.81963;paint-order:stroke fill markers"
       d="M 206.70246,89.875928 A 97.029353,86.546472 0 0 0 139.39339,114.37586 H 274.31325 A 97.029353,86.546472 0 0 0 206.70246,89.875928 Z"
       inkscape:label="右山" />
  </g>
  <g
     inkscape:groupmode="layer"
     id="layer4"
     inkscape:label="文字"
     transform="translate(-31.656062,-35.000005)">
    <rect
       style="display:inline;fill:#0044aa;stroke-width:1.25488;paint-order:stroke fill markers"
       id="rect5"
       width="243.34392"
       height="30.000002"
       x="31.656063"
       y="150"
       inkscape:label="文字のバック" />
    <path
       style="font-size:37.0417px;line-height:0px;font-family:'site seeing shop';-inkscape-font-specification:'site seeing shop';letter-spacing:5.29167px;word-spacing:0px;fill:#0044aa;paint-order:stroke fill markers"
       d="m 47.01315,145.14044 -13.565076,-13.67359 5.028122,-5.0643 h 13.673595 v -0.21704 l -4.81108,-4.84725 h -12.19048 v -6.22185 h 5.715418 l -0.976686,-1.41077 5.172816,-4.84725 6.258021,6.25802 h 10.020069 v 6.22185 h -3.58118 l 9.043383,9.47746 -1.808676,1.84485 H 44.951258 q 3.979089,4.52169 5.498377,5.6069 1.519289,1.04903 3.617354,0.75964 2.098065,-0.32556 3.906741,-0.14469 v 6.25802 z m 28.225693,-0.0362 v -36.60762 h 8.211393 v 25.90025 h 0.217041 l 11.358489,-11.03293 q 1.085206,1.41077 2.713015,2.64067 1.663983,1.19373 2.134239,2.89388 0.50643,1.66399 0.28939,3.65353 -0.217043,1.95337 0,3.79822 h 6.0048 v 8.53696 H 91.842495 v -7.88583 h -0.217041 q -1.736329,1.66398 -3.436486,3.50883 -1.700156,1.84485 -3.508832,3.43648 -1.772503,1.59164 -4.449345,1.19373 -2.676841,-0.36173 -4.991948,-0.0362 z m 49.929807,0.50643 v -0.21704 h -0.28939 v -16.27809 l 0.25322,-0.10853 h 10.81588 v -3.21944 h -10.77971 v -6.61976 h 10.77971 v -4.01526 H 125.16865 V 108.569 h 22.02968 v 6.58358 h -2.74918 v 4.01526 h 7.3794 v 6.61976 h -7.3794 v 3.21944 h 7.3794 v 6.54741 h -7.3794 v 9.83921 h -0.21705 v 0.21704 z m -10.5265,-0.21704 V 108.569 h 8.50078 v 36.82466 z m 21.30621,-6.36655 v -3.47266 h -2.64066 v 3.47266 z m 12.33518,-24.12774 v -6.54741 h 2.96623 v 6.54741 z m 4.84725,0 v -6.54741 h 2.96623 v 6.54741 z m 20.5569,30.42194 -5.0643,-5.38986 13.09482,-13.31186 -1.66398,-1.62781 h -18.66554 v -7.48792 h 21.74029 l 9.1519,9.00721 z m -7.81348,-29.1197 v -7.48792 h 18.48467 v 7.48792 z m 37.30524,28.25153 V 120.8318 h -5.64307 v -6.51124 h 5.64307 v -5.67924 h 8.79017 v 5.67924 h 3.43649 v -5.67924 h 8.71782 v 5.67924 q 5.28134,-0.36174 11.57553,5.20899 v 15.77166 l -5.78777,5.6069 -4.70255,-4.84726 1.7725,-1.66398 0.0724,-13.56507 h -2.93006 v 10.20093 h -8.71782 V 120.8318 h -3.43649 v 23.62131 z m 37.95638,0.54261 v -14.86733 h 12.69691 v -2.38745 h -12.69691 v -6.47506 h 12.69691 v -2.06189 h -12.69691 v -6.43889 h 12.69691 v -3.72588 h 8.28374 v 3.72588 h 9.73068 v 6.43889 h -9.73068 v 2.06189 h 9.73068 v 6.47506 h -9.73068 v 2.38745 h 9.73068 v 6.43889 h -9.73068 v 8.42844 z m 12.69691,-6.43889 v -1.98955 h -4.377 v 1.98955 z"
       id="text1"
       inkscape:label="さんぼうやま"
       aria-label="さんぼうやま" />
  </g>
</svg>
