<?xml version="1.0" encoding="UTF-8" standalone="no"?>
<!-- Created with Inkscape (http://www.inkscape.org/) -->

<svg
   width="243.34392mm"
   height="144.99986mm"
   viewBox="0 0 243.34392 144.99986"
   version="1.1"
   id="svg1"
   inkscape:version="1.3 (0e150ed6c4, 2023-07-21)"
   sodipodi:docname="Tシャツプリント用_outline.svg"
   xmlns:inkscape="http://www.inkscape.org/namespaces/inkscape"
   xmlns:sodipodi="http://sodipodi.sourceforge.net/DTD/sodipodi-0.dtd"
   xmlns="http://www.w3.org/2000/svg"
   xmlns:svg="http://www.w3.org/2000/svg">
  <sodipodi:namedview
     id="namedview1"
     pagecolor="#b9b9b9"
     bordercolor="#000000"
     borderopacity="0.25"
     inkscape:showpageshadow="2"
     inkscape:pageopacity="0.0"
     inkscape:pagecheckerboard="0"
     inkscape:deskcolor="#d1d1d1"
     inkscape:document-units="mm"
     showgrid="true"
     inkscape:zoom="0.69397446"
     inkscape:cx="517.3101"
     inkscape:cy="421.48525"
     inkscape:window-width="1800"
     inkscape:window-height="1106"
     inkscape:window-x="-11"
     inkscape:window-y="-11"
     inkscape:window-maximized="1"
     inkscape:current-layer="layer4">
    <inkscape:grid
       id="grid1"
       units="mm"
       originx="-119.64496"
       originy="-132.28348"
       spacingx="1"
       spacingy="1"
       empcolor="#0099e5"
       empopacity="0.30196078"
       color="#0099e5"
       opacity="0.14901961"
       empspacing="5"
       dotted="false"
       gridanglex="30"
       gridanglez="30"
       visible="true"
       snapvisiblegridlinesonly="false" />
  </sodipodi:namedview>
  <defs
     id="defs1" />
  <g
     inkscape:groupmode="layer"
     id="layer3"
     inkscape:label="東屋"
     transform="translate(-30.969323,-46.375862)">
    <rect
       style="fill:none;stroke:#0044aa;stroke-width:1;stroke-dasharray:none;paint-order:stroke fill markers"
       id="rect4"
       width="20.978691"
       height="10.999998"
       x="199.83455"
       y="81.87587"
       inkscape:label="外側柱"
       inkscape:export-filename="..\..\..\Users\tomoo\OneDrive\www\kamonegi\img\sanbouyama\sanbouyama_print_img.svg"
       inkscape:export-xdpi="96"
       inkscape:export-ydpi="96" />
    <rect
       style="fill:none;stroke:#0044aa;stroke-width:1;stroke-dasharray:none;paint-order:stroke fill markers"
       id="rect6"
       width="9.0866604"
       height="10.999998"
       x="205.76991"
       y="81.87587"
       inkscape:label="内側柱" />
    <path
       style="display:inline;fill:#0044aa;stroke:none;stroke-width:1.06934;stroke-dasharray:none;paint-order:stroke fill markers"
       d="m 199.31327,87.375858 0.0213,6 h 21.95738 l 0.0213,-6 z"
       id="path7"
       sodipodi:nodetypes="ccccc"
       inkscape:label="東屋下" />
    <path
       style="display:inline;fill:#0044aa;stroke:none;stroke-width:0.854573;stroke-dasharray:none;paint-order:stroke fill markers"
       d="m 210.31325,76.375858 -15.99999,5.99999 h 31.99999 z"
       id="path5"
       sodipodi:nodetypes="cccc"
       inkscape:label="東屋屋根" />
    <rect
       style="fill:none;stroke:#0044aa;stroke-width:1;stroke-dasharray:none;paint-order:stroke fill markers"
       id="rect3"
       width="18.999996"
       height="12.894177"
       x="96.813271"
       y="53.376404"
       inkscape:label="砦枠" />
    <rect
       style="fill:none;stroke:#0044aa;stroke-width:0.999999;stroke-dasharray:none;paint-order:stroke fill markers"
       id="rect1-2"
       width="18.999996"
       height="8.8947191"
       x="96.813271"
       y="57.375854"
       inkscape:label="砦枠" />
    <rect
       style="fill:none;stroke:#0044aa;stroke-width:0.999992;stroke-dasharray:none;paint-order:stroke fill markers"
       id="rect2-1"
       width="7.0000114"
       height="8.8947191"
       x="102.81326"
       y="57.375854"
       inkscape:label="砦枠" />
    <path
       style="fill:#0044aa;stroke:none;stroke-width:1.06934;stroke-dasharray:none;paint-order:stroke fill markers"
       d="m 96.313266,61.375858 -5,22 h 29.999994 l -5,-22 z"
       id="path3"
       sodipodi:nodetypes="ccccc"
       inkscape:label="砦下" />
    <path
       style="fill:#0044aa;stroke:none;stroke-width:0.785542;stroke-dasharray:none;paint-order:stroke fill markers"
       d="M 106.31326,46.375862 91.313266,54.375858 H 121.31326 Z"
       id="path4"
       sodipodi:nodetypes="cccc"
       inkscape:label="砦屋根" />
    <path
       id="path6"
       style="display:inline;fill:#0044aa;stroke-width:2.81963;paint-order:stroke fill markers"
       d="M 108.60448,79.375858 A 97.029353,86.546472 0 0 0 30.969323,114.37586 H 186.54625 A 97.029353,86.546472 0 0 0 108.60448,79.375858 Z"
       inkscape:label="左山" />
    <path
       id="circle6"
       style="display:inline;fill:#0044aa;stroke-width:2.81963;paint-order:stroke fill markers"
       d="M 206.70246,89.875928 A 97.029353,86.546472 0 0 0 139.39339,114.37586 H 274.31325 A 97.029353,86.546472 0 0 0 206.70246,89.875928 Z"
       inkscape:label="右山" />
  </g>
  <g
     inkscape:groupmode="layer"
     id="layer4"
     inkscape:label="文字"
     transform="translate(-31.656062,-35.000005)">
    <path
       id="rect5"
       style="display:inline;fill:#0044aa;stroke-width:1.25488;paint-order:stroke fill markers"
       inkscape:label="文字のバック"
       d="m 31.656062,150.00015 v 29.99972 H 274.99975 v -29.99972 z m 145.062928,4.78162 c 1.72038,0 3.55577,0.2438 5.50615,0.7307 v 5.19503 c -0.91079,-0.41341 -1.78496,-0.69803 -2.62215,-0.85421 -0.83719,-0.16536 -1.75277,-0.24805 -2.74635,-0.24805 -1.63759,0 -2.94381,0.49133 -3.919,1.47433 -0.96599,0.983 -1.44899,2.33348 -1.44899,4.05144 0,1.64445 0.40496,2.93029 1.21457,3.85816 0.81879,0.92788 1.95941,1.39216 3.4222,1.39216 0.68079,0 1.18236,-0.0371 1.50435,-0.11059 v -2.82463 h -3.79531 v -4.50618 h 9.75687 v 10.63811 c -0.74519,0.42259 -1.85874,0.80419 -3.33992,1.14411 -1.48118,0.33073 -2.89303,0.4961 -4.23622,0.4961 -3.46836,0 -6.14556,-0.86392 -8.03153,-2.59106 -1.88599,-1.73633 -2.82915,-4.16593 -2.82915,-7.28948 0,-2.09462 0.47397,-3.95497 1.42155,-5.58105 0.9568,-1.62608 2.29965,-2.86155 4.02922,-3.70675 1.72959,-0.8452 3.76773,-1.26814 6.11371,-1.26814 z m 38.50169,0 c 0.69,0 1.32479,0.0276 1.90439,0.0827 0.5796,0.0551 1.10399,0.12403 1.57319,0.2067 0.47838,0.0827 1.14505,0.23904 2.00064,0.46871 v 5.02967 c -1.66519,-0.90951 -3.30261,-1.36426 -4.91259,-1.36426 -0.6624,0 -1.19582,0.12402 -1.60061,0.37207 -0.40479,0.24805 -0.60755,0.58831 -0.60755,1.02009 0,0.41341 0.16135,0.75792 0.48334,1.03353 0.3312,0.26642 1.01642,0.61519 2.05602,1.04697 2.05157,0.82682 3.50057,1.73208 4.34697,2.71508 0.85558,0.98299 1.28338,2.14957 1.28338,3.50004 0,1.31373 -0.35402,2.4575 -1.06241,3.43132 -0.6992,0.97381 -1.68377,1.6994 -2.95336,2.17712 -1.26958,0.47772 -2.7966,0.71676 -4.58139,0.71676 -2.06998,0 -3.96534,-0.34928 -5.68572,-1.04749 v -5.41569 c 0.82799,0.60634 1.74355,1.09767 2.74635,1.47433 1.00279,0.36748 1.93642,0.55139 2.8012,0.55139 0.65319,0 1.15902,-0.11501 1.51782,-0.34468 0.35879,-0.23886 0.5382,-0.58337 0.5382,-1.03353 0,-0.32154 -0.0918,-0.6014 -0.27583,-0.84026 -0.1748,-0.24805 -0.44603,-0.47806 -0.81402,-0.68936 -0.3588,-0.2113 -1.03074,-0.50069 -2.01513,-0.86817 -3.18316,-1.22186 -4.77442,-3.19671 -4.77442,-5.92522 0,-1.91087 0.72662,-3.43574 2.18021,-4.57491 1.45358,-1.14837 3.40415,-1.72289 5.85132,-1.72289 z M 53.858193,155.1125 h 5.961553 v 9.39839 h 0.06934 c 0.174799,-0.49609 0.372253,-0.95562 0.593051,-1.37821 l 3.946942,-8.02018 h 7.065373 l -5.616384,9.42578 5.883929,9.88053 6.660173,-19.30631 h 7.39657 l 6.416951,19.76106 H 85.76389 l -0.869394,-3.63802 h -5.906699 l -0.93822,3.63802 H 72.032652 64.80168 l -4.388366,-8.35091 c -0.294398,-0.66146 -0.469025,-1.11621 -0.524224,-1.36426 h -0.06934 v 9.71517 h -5.961553 z m 39.178068,0 h 17.125489 v 4.65811 h -5.60241 v 15.10295 h -5.989495 v -15.10295 h -5.533584 z m 24.563979,0 h 7.39657 l 6.41695,19.76106 h -6.47232 l -0.86939,-3.63802 h -5.90618 l -0.93823,3.63802 h -6.44489 z m 16.13191,0 h 5.96155 v 7.31738 h 6.84492 v -7.31738 h 5.96155 v 19.76106 h -5.96155 v -7.37267 h -6.84492 v 7.37267 h -5.96155 z m 22.67304,0 h 5.96156 v 19.76106 h -5.96156 z m 35.46608,0 h 7.39657 l 6.41695,19.76106 h -6.47232 l -0.8694,-3.63802 h -5.90618 l -0.93822,3.63802 h -6.4449 z m 32.29174,0 h 5.96156 v 7.31738 h 6.8444 v -7.31738 h 5.96156 v 19.76106 h -5.96156 v -7.37267 h -6.8444 v 7.37267 h -5.96156 z m 22.67306,0 h 5.96155 v 19.76106 h -5.96155 z m -164.96375,4.29948 c -0.0184,0.22047 -0.08314,0.58354 -0.193543,1.08882 -0.110399,0.50528 -0.666652,2.67306 -1.669443,6.50399 h 3.780826 l -1.379645,-5.37383 c -0.193198,-0.79008 -0.326942,-1.52997 -0.400541,-2.21898 z m 39.17755,0 c -0.0184,0.22047 -0.0827,0.58354 -0.19303,1.08882 -0.1104,0.50528 -0.66717,2.67306 -1.66996,6.50399 h 3.78135 l -1.38016,-5.37383 c -0.1932,-0.79008 -0.32643,-1.52997 -0.40003,-2.21898 z m 74.27103,0 c -0.0184,0.22047 -0.0827,0.58354 -0.19303,1.08882 -0.11039,0.50528 -0.66717,2.67306 -1.66996,6.50399 h 3.78134 l -1.38016,-5.37383 c -0.1932,-0.79008 -0.32642,-1.52997 -0.40002,-2.21898 z" />
    <path
       style="font-size:37.0417px;line-height:0px;font-family:'site seeing shop';-inkscape-font-specification:'site seeing shop';letter-spacing:5.29167px;word-spacing:0px;fill:#0044aa;paint-order:stroke fill markers"
       d="m 47.01315,145.14044 -13.565076,-13.67359 5.028122,-5.0643 h 13.673595 v -0.21704 l -4.81108,-4.84725 h -12.19048 v -6.22185 h 5.715418 l -0.976686,-1.41077 5.172816,-4.84725 6.258021,6.25802 h 10.020069 v 6.22185 h -3.58118 l 9.043383,9.47746 -1.808676,1.84485 H 44.951258 q 3.979089,4.52169 5.498377,5.6069 1.519289,1.04903 3.617354,0.75964 2.098065,-0.32556 3.906741,-0.14469 v 6.25802 z m 28.225693,-0.0362 v -36.60762 h 8.211393 v 25.90025 h 0.217041 l 11.358489,-11.03293 q 1.085206,1.41077 2.713015,2.64067 1.663983,1.19373 2.134239,2.89388 0.50643,1.66399 0.28939,3.65353 -0.217043,1.95337 0,3.79822 h 6.0048 v 8.53696 H 91.842495 v -7.88583 h -0.217041 q -1.736329,1.66398 -3.436486,3.50883 -1.700156,1.84485 -3.508832,3.43648 -1.772503,1.59164 -4.449345,1.19373 -2.676841,-0.36173 -4.991948,-0.0362 z m 49.929807,0.50643 v -0.21704 h -0.28939 v -16.27809 l 0.25322,-0.10853 h 10.81588 v -3.21944 h -10.77971 v -6.61976 h 10.77971 v -4.01526 H 125.16865 V 108.569 h 22.02968 v 6.58358 h -2.74918 v 4.01526 h 7.3794 v 6.61976 h -7.3794 v 3.21944 h 7.3794 v 6.54741 h -7.3794 v 9.83921 h -0.21705 v 0.21704 z m -10.5265,-0.21704 V 108.569 h 8.50078 v 36.82466 z m 21.30621,-6.36655 v -3.47266 h -2.64066 v 3.47266 z m 12.33518,-24.12774 v -6.54741 h 2.96623 v 6.54741 z m 4.84725,0 v -6.54741 h 2.96623 v 6.54741 z m 20.5569,30.42194 -5.0643,-5.38986 13.09482,-13.31186 -1.66398,-1.62781 h -18.66554 v -7.48792 h 21.74029 l 9.1519,9.00721 z m -7.81348,-29.1197 v -7.48792 h 18.48467 v 7.48792 z m 37.30524,28.25153 V 120.8318 h -5.64307 v -6.51124 h 5.64307 v -5.67924 h 8.79017 v 5.67924 h 3.43649 v -5.67924 h 8.71782 v 5.67924 q 5.28134,-0.36174 11.57553,5.20899 v 15.77166 l -5.78777,5.6069 -4.70255,-4.84726 1.7725,-1.66398 0.0724,-13.56507 h -2.93006 v 10.20093 h -8.71782 V 120.8318 h -3.43649 v 23.62131 z m 37.95638,0.54261 v -14.86733 h 12.69691 v -2.38745 h -12.69691 v -6.47506 h 12.69691 v -2.06189 h -12.69691 v -6.43889 h 12.69691 v -3.72588 h 8.28374 v 3.72588 h 9.73068 v 6.43889 h -9.73068 v 2.06189 h 9.73068 v 6.47506 h -9.73068 v 2.38745 h 9.73068 v 6.43889 h -9.73068 v 8.42844 z m 12.69691,-6.43889 v -1.98955 h -4.377 v 1.98955 z"
       id="text1"
       inkscape:label="さんぼうやま"
       aria-label="さんぼうやま" />
  </g>
</svg>
