<?xml version="1.0" encoding="UTF-8" standalone="no"?>
<!-- Created with Inkscape (http://www.inkscape.org/) -->

<svg
   width="261.24506mm"
   height="98.148949mm"
   viewBox="0 0 261.24506 98.148949"
   version="1.1"
   id="svg1"
   inkscape:version="1.3 (0e150ed6c4, 2023-07-21)"
   sodipodi:docname="さんぼうやま_かたひがし_outlaine.svg"
   xmlns:inkscape="http://www.inkscape.org/namespaces/inkscape"
   xmlns:sodipodi="http://sodipodi.sourceforge.net/DTD/sodipodi-0.dtd"
   xmlns="http://www.w3.org/2000/svg"
   xmlns:svg="http://www.w3.org/2000/svg">
  <sodipodi:namedview
     id="namedview1"
     pagecolor="#ffffff"
     bordercolor="#000000"
     borderopacity="0.25"
     inkscape:showpageshadow="2"
     inkscape:pageopacity="0.0"
     inkscape:pagecheckerboard="0"
     inkscape:deskcolor="#d1d1d1"
     inkscape:document-units="mm"
     showgrid="true"
     inkscape:zoom="0.69397447"
     inkscape:cx="733.45638"
     inkscape:cy="202.45702"
     inkscape:window-width="1800"
     inkscape:window-height="1106"
     inkscape:window-x="-11"
     inkscape:window-y="-11"
     inkscape:window-maximized="1"
     inkscape:current-layer="layer1">
    <inkscape:grid
       id="grid1"
       units="mm"
       originx="-73.043242"
       originy="-206.52429"
       spacingx="1"
       spacingy="1"
       empcolor="#0099e5"
       empopacity="0.30196078"
       color="#0099e5"
       opacity="0.14901961"
       empspacing="5"
       dotted="false"
       gridanglex="30"
       gridanglez="30"
       visible="true" />
  </sodipodi:namedview>
  <defs
     id="defs1" />
  <g
     inkscape:label="文字"
     inkscape:groupmode="layer"
     id="layer1"
     transform="translate(-19.326024,-54.642885)">
    <path
       style="font-size:47.625px;line-height:54px;font-family:'site seeing shop';-inkscape-font-specification:'site seeing shop';letter-spacing:5.29167px;word-spacing:0.41275px;fill:#0044aa;stroke-width:0;paint-order:stroke fill markers"
       d="M 29.976538,152.79182 V 121.39839 H 19.326025 v -9.95288 h 10.650513 v -6.09265 h 9.673828 v 6.09265 q 3.162597,-0.13953 6.371704,0.0465 3.255615,0.13953 5.348511,2.83704 2.139404,2.69751 4.511352,4.74389 2.418457,2.04639 4.650879,4.51135 l 0.09302,0.13953 v 29.06799 h -9.62732 v -24.51013 q -1.162719,-1.34875 -2.511474,-2.46496 -1.302246,-1.16272 -2.464966,-2.6045 -1.16272,-1.48828 -2.837036,-1.72082 -1.674317,-0.23254 -3.534668,-0.093 v 31.39343 z m 33.253784,-29.20752 -14.557251,-14.88281 7.162353,-6.74377 14.278199,14.92932 z m 19.1978,28.09131 v -31.67248 h -6.650757 v -9.44129 h 6.650757 v -4.2788 h 9.162231 v 4.2788 h 28.881957 v 9.44129 H 91.590353 v 31.67248 z m 13.487548,-2.651 v -8.04602 h 21.11499 v 8.04602 z m 0,-15.95251 v -8.04602 h 21.11499 v 8.04602 z m 45.28923,19.30115 -7.81348,-7.81348 v -28.13782 h -6.97631 v -8.41809 h 17.76635 v 33.57935 q 0.83716,2.88354 12.37134,2.23242 v -31.67249 l 6.83679,-6.55774 13.06897,13.39453 -6.97632,6.51124 -2.1394,-1.86036 v 28.60291 h -25.99841 z m 51.33537,-0.23255 V 120.97981 H 182.1223 v -9.62732 h 10.41797 v -5.99963 h 9.39478 v 5.99963 q 3.11609,-0.13952 6.23218,0 3.11609,0.093 5.16247,2.74402 2.0929,2.651 4.41834,4.65088 2.32544,1.99988 4.46484,4.37183 l 0.18604,0.18603 v 28.41687 h -9.39478 v -23.99853 q -1.16272,-1.30225 -2.41846,-2.41846 -1.25573,-1.16272 -2.41845,-2.55798 -1.16272,-1.44178 -2.79053,-1.62781 -1.62781,-0.23254 -3.44165,-0.13953 v 31.16089 z m 31.81202,-29.99817 -13.06897,-13.48755 6.83679,-6.55774 13.06897,13.53406 z m 1.99987,-12.51086 v -9.67383 h 4.97644 v 9.67383 z m 6.13916,0 v -9.67383 h 4.83692 v 9.67383 z m 23.10454,42.97412 -12.92944,-12.60388 v -34.78858 h 10.92956 v 32.04456 l 2.23243,1.72082 18.18493,-17.81286 6.55774,6.69726 z"
       id="text59"
       inkscape:label="かたひがし"
       aria-label="かたひがし" />
  </g>
  <g
     inkscape:groupmode="layer"
     id="layer4"
     inkscape:label="三方山"
     style="display:inline"
     transform="translate(-19.326024,-54.642885)">
    <rect
       style="fill:none;stroke:#0044aa;stroke-width:0.608193;stroke-dasharray:none;paint-order:stroke fill markers"
       id="rect5"
       width="12.759087"
       height="6.6901183"
       x="177.70261"
       y="76.233742"
       inkscape:label="外側柱"
       inkscape:export-filename="..\..\..\Users\tomoo\OneDrive\www\kamonegi\img\sanbouyama\sanbouyama.png"
       inkscape:export-xdpi="96"
       inkscape:export-ydpi="96" />
    <rect
       style="fill:none;stroke:#0044aa;stroke-width:0.608193;stroke-dasharray:none;paint-order:stroke fill markers"
       id="rect7"
       width="5.5264406"
       height="6.6901183"
       x="181.31245"
       y="76.233742"
       inkscape:label="内側柱" />
    <path
       style="display:inline;fill:#0044aa;stroke:none;stroke-width:0.650365;stroke-dasharray:none;paint-order:stroke fill markers"
       d="m 177.38556,79.578797 0.013,3.649158 h 13.35431 l 0.013,-3.649158 z"
       id="path8"
       sodipodi:nodetypes="ccccc"
       inkscape:label="砦下" />
    <path
       style="display:inline;fill:#0044aa;stroke:none;stroke-width:0.519745;stroke-dasharray:none;paint-order:stroke fill markers"
       d="m 184.07567,72.888674 -9.73108,3.649152 h 19.46215 z"
       id="path9"
       sodipodi:nodetypes="cccc"
       inkscape:label="東屋屋根" />
    <path
       style="fill:#0044aa;stroke:none;stroke-width:0.650365;stroke-dasharray:none;paint-order:stroke fill markers"
       d="m 114.74171,63.765778 -3.04097,13.380247 h 18.24578 l -3.04096,-13.380247 z"
       id="path10"
       sodipodi:nodetypes="ccccc"
       inkscape:label="砦下" />
    <rect
       style="fill:none;stroke:#0044aa;stroke-width:0.608193;stroke-dasharray:none;paint-order:stroke fill markers"
       id="rect10"
       width="11.555659"
       height="7.8421445"
       x="115.04581"
       y="58.900555"
       inkscape:label="砦枠" />
    <path
       style="fill:#0044aa;stroke:none;stroke-width:0.477761;stroke-dasharray:none;paint-order:stroke fill markers"
       d="m 120.82364,54.642886 -9.1229,4.865541 h 18.24578 z"
       id="path11"
       sodipodi:nodetypes="cccc"
       inkscape:label="砦屋根" />
    <rect
       style="fill:none;stroke:#0044aa;stroke-width:0.608192;stroke-dasharray:none;paint-order:stroke fill markers"
       id="rect11"
       width="11.555659"
       height="5.4097033"
       x="115.04581"
       y="61.333"
       inkscape:label="砦枠" />
    <rect
       style="fill:none;stroke:#0044aa;stroke-width:0.608187;stroke-dasharray:none;paint-order:stroke fill markers"
       id="rect12"
       width="4.2573557"
       height="5.4097033"
       x="118.69495"
       y="61.333"
       inkscape:label="砦枠" />
    <path
       id="path12"
       style="display:inline;fill:#0044aa;stroke-width:1.71488;paint-order:stroke fill markers"
       d="M 122.21714,74.71325 A 59.012543,52.636931 0 0 0 75.000002,96.000002 H 169.62076 A 59.012543,52.636931 0 0 0 122.21714,74.71325 Z"
       inkscape:label="左山" />
    <path
       id="path13"
       style="display:inline;fill:#0044aa;stroke-width:1.71488;paint-order:stroke fill markers"
       d="m 181.87961,81.099324 a 59.012543,52.636931 0 0 0 -40.93688,14.900678 h 82.05726 A 59.012543,52.636931 0 0 0 181.87961,81.099324 Z"
       inkscape:label="右山" />
  </g>
</svg>
