<?xml version="1.0" encoding="UTF-8" standalone="no"?>
<!-- Created with Inkscape (http://www.inkscape.org/) -->

<svg
   width="200"
   height="100"
   viewBox="0 0 52.916666 26.458333"
   version="1.1"
   id="svg1"
   inkscape:export-filename="..\..\..\..\Users\tomoo\OneDrive\www\kamonegi\img\kamonegikun_title_left.svg"
   inkscape:export-xdpi="96"
   inkscape:export-ydpi="96"
   inkscape:version="1.3 (0e150ed6c4, 2023-07-21)"
   sodipodi:docname="ホームページタイトル_左_outline.svg"
   xmlns:inkscape="http://www.inkscape.org/namespaces/inkscape"
   xmlns:sodipodi="http://sodipodi.sourceforge.net/DTD/sodipodi-0.dtd"
   xmlns="http://www.w3.org/2000/svg"
   xmlns:svg="http://www.w3.org/2000/svg">
  <sodipodi:namedview
     id="namedview1"
     pagecolor="#ffff00"
     bordercolor="#000000"
     borderopacity="0.25"
     inkscape:showpageshadow="2"
     inkscape:pageopacity="0.0"
     inkscape:pagecheckerboard="0"
     inkscape:deskcolor="#d1d1d1"
     inkscape:document-units="mm"
     inkscape:export-bgcolor="#ffff00ff"
     inkscape:zoom="1.9628563"
     inkscape:cx="188.50081"
     inkscape:cy="69.541515"
     inkscape:window-width="1800"
     inkscape:window-height="1106"
     inkscape:window-x="-11"
     inkscape:window-y="-11"
     inkscape:window-maximized="1"
     inkscape:current-layer="layer1"
     showgrid="true">
    <inkscape:grid
       id="grid4"
       units="px"
       originx="0"
       originy="0"
       spacingx="0.26458333"
       spacingy="0.26458333"
       empcolor="#0099e5"
       empopacity="0.30196078"
       color="#0099e5"
       opacity="0.14901961"
       empspacing="5"
       dotted="false"
       gridanglex="30"
       gridanglez="30"
       visible="true" />
  </sodipodi:namedview>
  <defs
     id="defs1" />
  <g
     inkscape:label="Layer 1"
     inkscape:groupmode="layer"
     id="layer1">
    <path
       style="font-size:7.05556px;line-height:8px;font-family:'site seeing shop';-inkscape-font-specification:'site seeing shop';letter-spacing:0.79375px;word-spacing:0.41275px;fill:#ffffff;stroke:#008000;stroke-width:0.8;stroke-dasharray:none;paint-order:stroke fill markers"
       d="M 9.2762655,25.332821 V 21.260716 H 7.4090225 V 19.99292 h 1.867243 v -1.715659 h 1.6398665 v 1.715659 h 3.582902 v 5.339901 h -1.605416 v -4.072105 h -1.977486 v 4.072105 z m 9.1515575,0.03445 v -3.603572 h -3.183271 v -1.205784 h 3.183271 v -1.04731 h -3.183271 v -1.205784 h 7.889274 v 1.205784 h -3.562231 v 1.04731 h 3.562231 v 1.205784 h -3.562231 v 2.397788 h 3.562231 v 1.205784 z m 10.095513,-0.04823 v -2.439129 h 1.329808 v -2.47358 h -0.985298 l -2.259984,2.225533 v 2.638945 h -1.274687 v -1.0542 h -0.289388 l -0.227376,0.172255 -0.916396,-0.992189 q 0.179145,-0.213596 0.523655,-0.530545 0.3514,-0.316949 0.675239,-0.682129 0.330729,-0.36518 0.254937,-0.861274 -0.0689,-0.502985 0,-1.088651 H 24.07916 v -1.378039 h 1.254015 v -0.585667 h 1.274687 v 0.585667 h 0.392741 v 1.350478 l 1.295357,-1.178223 h 2.84565 v 3.851619 h 0.778592 v 1.384929 H 31.14161 v 1.0542 z m 6.367918,0.282498 -2.204862,-2.266874 1.350478,-1.38493 h -1.254015 v -1.453831 h 1.405599 v -0.427192 h -1.384929 v -1.460721 h 1.384929 v -0.296279 h 1.41249 v 0.296279 h 1.426271 v 1.460721 h -1.426271 v 0.427192 h 1.4056 v 1.453831 h -1.4056 q 0.02067,0.234267 0,0.454753 -0.02067,0.213596 -0.213596,0.35829 -0.192925,0.144695 -0.344509,0.303169 -0.151585,0.158475 -0.275608,0.33762 l 1.136882,1.192003 z m 2.287545,-5.960019 v -1.453831 h 0.757922 v 1.453831 z m 0.923286,0 v -1.453831 h 0.730361 v 1.453831 z m 4.976099,5.615509 -3.451988,-3.52089 3.451988,-3.389976 0.964627,1.005969 -2.384008,2.452909 2.425349,2.487361 z m 2.412944,-0.0069 v -6.972878 h 1.564075 v 4.93338 h 0.04134 l 2.163521,-2.101509 q 0.206706,0.268717 0.516765,0.502984 0.316949,0.227376 0.406521,0.551215 0.09646,0.316949 0.05512,0.69591 -0.04134,0.372071 0,0.723471 h 1.143772 v 1.626086 h -2.728517 v -1.502063 h -0.04134 q -0.33073,0.316949 -0.654569,0.668349 -0.323839,0.3514 -0.668349,0.654569 -0.337619,0.303168 -0.847494,0.227376 -0.509874,-0.0689 -0.950847,-0.0069 z"
       id="text1"
       inkscape:label="カモねぎくん"
       aria-label="カモねぎくん" />
    <g
       id="text59"
       style="font-size:7.05556px;line-height:8px;font-family:'AR PShounanShinpitsuGyosyoJIS';-inkscape-font-specification:'AR PShounanShinpitsuGyosyoJIS, Normal';letter-spacing:0px;word-spacing:0.41275px;fill:#ffffff;stroke:#008000;stroke-width:0.8;stroke-dasharray:none;paint-order:stroke fill markers"
       inkscape:label="かもん！"
       aria-label="かもん！"
       transform="translate(0.52916693,0.52916667)">
      <path
         style="letter-spacing:0.79375px;fill:#ffffff;stroke:#008000;stroke-width:0.8;stroke-dasharray:none"
         d="m 18.055466,16.254119 v -4.650882 h -1.577854 v -1.474502 h 1.577854 V 9.2261193 h 1.433161 v 0.9026157 q 0.468533,-0.02067 0.943957,0.0069 0.482314,0.02067 0.792372,0.420302 0.316949,0.399631 0.668349,0.7028 0.358291,0.303169 0.68902,0.668349 l 0.01378,0.02067 v 4.306373 h -1.42627 v -3.631133 q -0.172255,-0.199816 -0.372071,-0.365181 -0.192925,-0.172255 -0.36518,-0.385851 -0.172255,-0.220486 -0.420302,-0.254937 -0.248047,-0.03445 -0.523655,-0.01378 v 4.650882 z m 4.92649,-4.327043 -2.156631,-2.2048627 1.06109,-0.9990783 2.11529,2.211753 z m 4.700491,4.306372 -0.964627,-0.923286 V 13.318895 H 24.857467 V 12.07177 H 26.71782 V 11.437872 H 24.857467 V 10.190747 H 26.71782 V 9.2192291 h 1.605415 v 0.9715179 h 2.501141 v 1.247125 h -2.501141 v 0.633898 h 2.501141 v 1.247125 h -2.501141 v 1.502063 q 0.06201,0.282498 1.019749,0.165365 l 0.613228,-0.558106 0.964627,1.040419 -0.764812,0.764812 z m 4.652259,-0.06201 V 9.1985585 h 1.564075 v 4.9333795 h 0.04134 l 2.163521,-2.101509 q 0.206706,0.268717 0.516765,0.502984 0.316949,0.227377 0.406521,0.551216 0.09646,0.316949 0.05512,0.695909 -0.04134,0.372071 0,0.723471 h 1.143772 v 1.626086 h -2.728517 v -1.502063 h -0.04134 q -0.33073,0.316949 -0.654569,0.668349 -0.323839,0.3514 -0.668349,0.654569 -0.337619,0.303169 -0.847494,0.227376 -0.509874,-0.0689 -0.950847,-0.0069 z"
         id="path1" />
      <path
         style="font-family:'site seeing shop';-inkscape-font-specification:'site seeing shop';fill:#ffffff;stroke:#008000;stroke-width:0.8;stroke-dasharray:none"
         d="m 39.605241,16.254119 v -1.626087 h 1.605415 v 1.626087 z m 0,-2.404679 V 9.1985585 h 1.605415 V 13.84944 Z"
         id="path2" />
    </g>
  </g>
</svg>
