<?xml version="1.0" encoding="UTF-8" standalone="no"?>
<!-- Created with Inkscape (http://www.inkscape.org/) -->

<svg
   width="220"
   height="100"
   viewBox="0 0 58.208332 26.458333"
   version="1.1"
   id="svg1"
   inkscape:export-filename="..\..\..\..\Users\tomoo\OneDrive\www\kamonegi\img\kamonegikun_title_left.svg"
   inkscape:export-xdpi="96"
   inkscape:export-ydpi="96"
   inkscape:version="1.3 (0e150ed6c4, 2023-07-21)"
   sodipodi:docname="ホームページタイトル_左_outline.svg"
   xmlns:inkscape="http://www.inkscape.org/namespaces/inkscape"
   xmlns:sodipodi="http://sodipodi.sourceforge.net/DTD/sodipodi-0.dtd"
   xmlns="http://www.w3.org/2000/svg"
   xmlns:svg="http://www.w3.org/2000/svg">
  <sodipodi:namedview
     id="namedview1"
     pagecolor="#ffff00"
     bordercolor="#000000"
     borderopacity="0.25"
     inkscape:showpageshadow="2"
     inkscape:pageopacity="0.0"
     inkscape:pagecheckerboard="0"
     inkscape:deskcolor="#d1d1d1"
     inkscape:document-units="mm"
     inkscape:export-bgcolor="#ffff00ff"
     inkscape:zoom="3.9257126"
     inkscape:cx="124.05391"
     inkscape:cy="64.319533"
     inkscape:window-width="1800"
     inkscape:window-height="1106"
     inkscape:window-x="-11"
     inkscape:window-y="-11"
     inkscape:window-maximized="1"
     inkscape:current-layer="layer1"
     showgrid="true"
     showguides="true">
    <inkscape:grid
       id="grid4"
       units="px"
       originx="0"
       originy="0"
       spacingx="0.26458333"
       spacingy="0.26458333"
       empcolor="#0099e5"
       empopacity="0.30196078"
       color="#0099e5"
       opacity="0.14901961"
       empspacing="5"
       dotted="false"
       gridanglex="30"
       gridanglez="30"
       visible="true" />
  </sodipodi:namedview>
  <defs
     id="defs1" />
  <g
     inkscape:label="Layer 1"
     inkscape:groupmode="layer"
     id="layer1">
    <path
       style="font-size:7.05556px;line-height:8px;font-family:'site seeing shop';-inkscape-font-specification:'site seeing shop';letter-spacing:0.79375px;word-spacing:0.41275px;fill:#ffffff;stroke:#008000;stroke-width:0.8;stroke-dasharray:none;paint-order:stroke fill markers"
       d="M 5.381075,23.893747 V 19.084215 H 3.1756889 V 17.586831 H 5.381075 v -2.02635 h 1.9368327 v 2.02635 h 4.2317363 v 6.306916 H 9.653499 V 19.084215 H 7.3179077 v 4.809532 z m 10.808832,0.04068 v -4.256149 h -3.759738 v -1.424143 h 3.759738 v -1.236966 h -3.759738 v -1.424141 h 9.317962 v 1.424141 h -4.207324 v 1.236971 h 4.207324 v 1.424143 h -4.207324 v 2.832009 h 4.207324 v 1.424141 z m 11.923731,-0.05696 V 20.99663 h 1.570626 v -2.921522 h -1.163728 l -2.66925,2.628559 v 3.116837 H 24.345764 V 22.575397 H 24.00397 l -0.268551,0.203448 -1.08235,-1.171866 q 0.211587,-0.252276 0.618485,-0.626623 0.415036,-0.374346 0.79752,-0.805656 0.390622,-0.431311 0.301104,-1.017245 -0.08137,-0.594071 0,-1.285797 h -1.505522 v -1.627593 h 1.481108 V 15.55234 h 1.505522 v 0.691725 h 0.463864 v 1.595047 l 1.529936,-1.391594 h 3.360975 v 4.549118 h 0.91959 v 1.635729 h -0.91959 v 1.245107 z m 7.521098,0.333656 -2.604146,-2.677386 1.59504,-1.635732 h -1.481107 v -1.717108 h 1.660142 V 17.67634 h -1.635728 v -1.725246 h 1.635728 V 15.60116 h 1.668281 v 0.349934 h 1.684558 v 1.725246 h -1.684558 v 0.504553 h 1.660143 v 1.717108 h -1.660143 q 0.0244,0.276692 0,0.537106 -0.0244,0.252276 -0.252276,0.423174 -0.227863,0.170897 -0.406898,0.35807 -0.179036,0.187173 -0.325518,0.398761 l 1.342763,1.407864 z m 2.701802,-7.039332 v -1.71711 h 0.895176 v 1.717109 z m 1.090486,0 v -1.71711 h 0.862624 v 1.717109 z m 5.877232,6.632433 -4.077116,-4.158494 4.077116,-4.003876 1.139313,1.188142 -2.815733,2.897113 2.864561,2.937802 z m 2.849909,-0.0081 v -8.235639 h 1.847316 v 5.826776 h 0.04883 l 2.555319,-2.482075 q 0.244138,0.317378 0.610348,0.594069 0.374344,0.268552 0.480138,0.651036 0.113928,0.374346 0.0651,0.821935 -0.04883,0.43945 0,0.854486 h 1.3509 v 1.920556 h -3.222627 v -1.774051 h -0.04883 q -0.390623,0.374346 -0.773107,0.789382 -0.382484,0.415036 -0.789382,0.773106 -0.39876,0.35807 -1.000968,0.268553 -0.602209,-0.08137 -1.12304,-0.0081 z"
       id="text1"
       inkscape:label="カモねぎくん"
       aria-label="カモねぎくん" />
    <g
       id="text59"
       style="font-size:7.05556px;line-height:8px;font-family:'AR PShounanShinpitsuGyosyoJIS';-inkscape-font-specification:'AR PShounanShinpitsuGyosyoJIS, Normal';letter-spacing:0px;word-spacing:0.41275px;fill:#ffffff;stroke:#008000;stroke-width:0.677339;stroke-dasharray:none;paint-order:stroke fill markers"
       inkscape:label="かもん！"
       aria-label="かもん！"
       transform="matrix(1.1810922,0,0,1.1810922,-4.950055,-6.9891577)">
      <path
         style="letter-spacing:0.79375px;fill:#ffffff;stroke:#008000;stroke-width:0.677339;stroke-dasharray:none"
         d="m 18.055466,16.254119 v -4.650882 h -1.577854 v -1.474502 h 1.577854 V 9.2261193 h 1.433161 v 0.9026157 q 0.468533,-0.02067 0.943957,0.0069 0.482314,0.02067 0.792372,0.420302 0.316949,0.399631 0.668349,0.7028 0.358291,0.303169 0.68902,0.668349 l 0.01378,0.02067 v 4.306373 h -1.42627 v -3.631133 q -0.172255,-0.199816 -0.372071,-0.365181 -0.192925,-0.172255 -0.36518,-0.385851 -0.172255,-0.220486 -0.420302,-0.254937 -0.248047,-0.03445 -0.523655,-0.01378 v 4.650882 z m 4.92649,-4.327043 -2.156631,-2.2048627 1.06109,-0.9990783 2.11529,2.211753 z m 4.700491,4.306372 -0.964627,-0.923286 V 13.318895 H 24.857467 V 12.07177 H 26.71782 V 11.437872 H 24.857467 V 10.190747 H 26.71782 V 9.2192291 h 1.605415 v 0.9715179 h 2.501141 v 1.247125 h -2.501141 v 0.633898 h 2.501141 v 1.247125 h -2.501141 v 1.502063 q 0.06201,0.282498 1.019749,0.165365 l 0.613228,-0.558106 0.964627,1.040419 -0.764812,0.764812 z m 4.652259,-0.06201 V 9.1985585 h 1.564075 v 4.9333795 h 0.04134 l 2.163521,-2.101509 q 0.206706,0.268717 0.516765,0.502984 0.316949,0.227377 0.406521,0.551216 0.09646,0.316949 0.05512,0.695909 -0.04134,0.372071 0,0.723471 h 1.143772 v 1.626086 h -2.728517 v -1.502063 h -0.04134 q -0.33073,0.316949 -0.654569,0.668349 -0.323839,0.3514 -0.668349,0.654569 -0.337619,0.303169 -0.847494,0.227376 -0.509874,-0.0689 -0.950847,-0.0069 z"
         id="path1" />
      <path
         style="font-family:'site seeing shop';-inkscape-font-specification:'site seeing shop';fill:#ffffff;stroke:#008000;stroke-width:0.677339;stroke-dasharray:none"
         d="m 39.605241,16.254119 v -1.626087 h 1.605415 v 1.626087 z m 0,-2.404679 V 9.1985585 h 1.605415 V 13.84944 Z"
         id="path2" />
    </g>
  </g>
</svg>
