<?xml version="1.0" encoding="UTF-8" standalone="no"?>
<!-- Created with Inkscape (http://www.inkscape.org/) -->

<svg
   width="100"
   height="50"
   viewBox="0 0 26.458333 13.229166"
   version="1.1"
   id="svg1"
   xml:space="preserve"
   inkscape:version="1.3 (0e150ed6c4, 2023-07-21)"
   sodipodi:docname="鴨の足跡.svg"
   inkscape:export-filename="..\..\..\..\Users\tomoo\OneDrive\www\kamonegi\img\kamonegikun_footprints.svg"
   inkscape:export-xdpi="96"
   inkscape:export-ydpi="96"
   xmlns:inkscape="http://www.inkscape.org/namespaces/inkscape"
   xmlns:sodipodi="http://sodipodi.sourceforge.net/DTD/sodipodi-0.dtd"
   xmlns="http://www.w3.org/2000/svg"
   xmlns:svg="http://www.w3.org/2000/svg"><sodipodi:namedview
     id="namedview1"
     pagecolor="#ffffff"
     bordercolor="#000000"
     borderopacity="0.25"
     inkscape:showpageshadow="2"
     inkscape:pageopacity="0.0"
     inkscape:pagecheckerboard="0"
     inkscape:deskcolor="#d1d1d1"
     inkscape:document-units="mm"
     inkscape:zoom="0.73851712"
     inkscape:cx="585.63301"
     inkscape:cy="280.96844"
     inkscape:window-width="1800"
     inkscape:window-height="1106"
     inkscape:window-x="-11"
     inkscape:window-y="-11"
     inkscape:window-maximized="1"
     inkscape:current-layer="layer2"
     showgrid="true"><inkscape:grid
       id="grid24"
       units="px"
       originx="0"
       originy="0"
       spacingx="0.26458333"
       spacingy="0.26458333"
       empcolor="#0099e5"
       empopacity="0.30196078"
       color="#0099e5"
       opacity="0.14901961"
       empspacing="5"
       dotted="false"
       gridanglex="30"
       gridanglez="30"
       visible="true" /></sodipodi:namedview><defs
     id="defs1" /><g
     inkscape:groupmode="layer"
     id="layer3"
     inkscape:label="足跡"
     style="opacity:0.2"><g
       id="g30"
       inkscape:label="左"
       transform="matrix(0.28188199,0,0,0.28195805,1.9692005,2.2436054)"
       style="stroke-width:0.106413;stroke-dasharray:none"><path
         style="display:inline;fill:#000000;stroke:#000000;stroke-width:0.106413;stroke-linecap:round;stroke-linejoin:round;stroke-dasharray:none"
         d="m 15.792632,6.0413113 c 0.154748,-0.024558 0.264275,0.4619784 0.337157,0.7575032 -0.19056,0.019412 -0.334878,0.023275 -0.566183,0.04775 0.03344,-0.3847815 0.07428,-0.780692 0.229026,-0.8052504 z"
         id="path13"
         sodipodi:nodetypes="zccz" /><path
         style="display:inline;fill:#000000;stroke:#000000;stroke-width:0.106413;stroke-linecap:round;stroke-linejoin:round;stroke-dasharray:none"
         d="m 8.9353777,9.5075506 c 0.1559314,0.015317 0.087064,0.4764295 0.082954,0.7807804 C 8.8542677,10.254988 8.7260781,10.207182 8.5542524,10.180878 8.6837808,9.8170149 8.7794462,9.4922332 8.9353777,9.5075506 Z"
         id="path14"
         sodipodi:nodetypes="zccz" /><path
         style="display:inline;fill:#000000;stroke:#000000;stroke-width:0.106413;stroke-linecap:round;stroke-linejoin:round;stroke-dasharray:none"
         d="m 23.043963,9.9517221 c 0.118122,-0.060847 0.281248,0.2993129 0.418367,0.5180009 -0.13221,0.05174 -0.249244,0.08548 -0.383747,0.145799 -0.07515,-0.318796 -0.152737,-0.602962 -0.03462,-0.6637999 z"
         id="path15"
         sodipodi:nodetypes="zccz" /><path
         id="path16"
         style="display:inline;fill:#808080;stroke:none;stroke-width:0.106413;stroke-linecap:round;stroke-linejoin:round;stroke-dasharray:none"
         d="m 16.132225,7.310377 c 1.478298,1.3681209 2.356792,2.0949779 3.454984,2.6742084 1.098192,0.5792286 2.902751,1.1103806 3.779222,1.1410336 0.316109,1.969689 -1.146387,3.344239 -2.555019,4.988317 -1.58689,1.852127 -3.556358,3.765715 -3.768791,3.663658 -0.106216,-0.05103 -0.128723,-0.485845 -0.125603,-1.205738 0.0031,-0.719898 0.03192,-1.724884 0.02826,-2.916182 -0.0037,-1.191299 -0.11947,-2.634174 -0.246001,-4.099416 -0.112186,-1.29913 -0.472946,-2.7190121 -0.567056,-4.245881 z"
         sodipodi:nodetypes="czcsssssc" /><path
         id="path17"
         style="display:inline;fill:#808080;stroke:none;stroke-width:0.106413;stroke-linecap:round;stroke-linejoin:round;stroke-dasharray:none"
         d="M 15.753456,7.2334892 C 16.122625,10.909017 16.27512,19.310661 15.740345,19.72969 15.203751,20.150144 9.0693745,15.829527 8.9573834,10.776233 12.046848,10.314453 13.335185,8.2132686 15.753455,7.2334892 Z"
         sodipodi:nodetypes="cscc" /><path
         style="display:inline;fill:#000000;stroke:#000000;stroke-width:0.106413;stroke-linecap:round;stroke-linejoin:round;stroke-dasharray:none"
         d="m 23.510282,10.656723 c -0.140431,0.04545 -0.194887,0.06199 -0.3465,0.114345 0.181845,2.092015 -0.858043,3.598782 -2.352383,5.342888 -1.58689,1.852129 -3.556339,3.765686 -3.768769,3.66363 -0.106217,-0.05103 -0.128751,-0.485851 -0.125614,-1.205749 0.0031,-0.719898 0.03189,-1.72486 0.02824,-2.91616 -0.0037,-1.191298 -0.03971,-2.568936 -0.166244,-4.03418 -0.126531,-1.465243 -0.275465,-3.0295436 -0.64099,-4.5712671 -0.16505,-1.268e-4 -0.298854,-0.00353 -0.516418,0.012646 0.154734,5.0833471 0.665238,12.2386141 0.118749,12.6668221 -0.546493,0.428208 -6.6654481,-4.229478 -6.8002576,-9.224119 -0.1307931,-0.03051 -0.2611055,-0.06386 -0.3967063,-0.08995 0.2724171,5.427476 2.6604149,7.651346 7.3396479,10.936772 0.238318,0.514571 0.431734,0.906606 0.741118,1.656854 0.147715,-0.769916 0.293994,-1.33229 0.565548,-1.838586 4.058687,-3.52293 7.480004,-8.129889 6.320584,-10.513932 z"
         id="path18"
         sodipodi:nodetypes="ccssssscczccccccc" /></g><g
       id="g62"
       inkscape:label="右2"
       transform="matrix(0.28188199,0,0,0.28195805,3.7671469,5.6269413)"
       style="fill:#554400;stroke:#554400;stroke-width:3.54711"><path
         style="display:inline;opacity:1;fill:#000000;stroke:#000000;stroke-width:0.106413;stroke-linecap:round;stroke-linejoin:round;stroke-dasharray:none"
         d="m 37.414534,18.052126 c -0.154748,-0.02454 -0.264274,0.461978 -0.337157,0.757504 0.19056,0.01941 0.334878,0.02327 0.566183,0.04775 -0.03344,-0.384781 -0.07428,-0.780693 -0.229026,-0.805252 z"
         id="path57"
         sodipodi:nodetypes="zccz" /><path
         style="display:inline;opacity:1;fill:#000000;stroke:#000000;stroke-width:0.106413;stroke-linecap:round;stroke-linejoin:round;stroke-dasharray:none"
         d="m 44.271789,21.518367 c -0.155933,0.01532 -0.08706,0.476428 -0.08295,0.780779 0.164064,-0.03334 0.292253,-0.08115 0.464078,-0.10745 -0.129529,-0.363865 -0.225194,-0.688647 -0.381124,-0.673329 z"
         id="path58"
         sodipodi:nodetypes="zccz" /><path
         style="display:inline;opacity:1;fill:#000000;stroke:#000000;stroke-width:0.106413;stroke-linecap:round;stroke-linejoin:round;stroke-dasharray:none"
         d="m 30.163203,21.962539 c -0.118122,-0.06085 -0.281248,0.299312 -0.418367,0.518 0.13221,0.05174 0.249244,0.08548 0.383746,0.145798 0.07515,-0.318796 0.152738,-0.60296 0.03462,-0.663798 z"
         id="path59"
         sodipodi:nodetypes="zccz" /><path
         id="path60"
         style="display:inline;opacity:1;fill:#808080;stroke:none;stroke-width:0;stroke-linecap:round;stroke-linejoin:round;stroke-dasharray:none"
         d="m 37.074941,19.321192 c -1.478298,1.368123 -2.356792,2.09498 -3.454984,2.674209 -1.098192,0.579229 -2.902751,1.110382 -3.779223,1.141035 -0.316108,1.969687 1.146388,3.344239 2.55502,4.988316 1.58689,1.852127 3.556358,3.765714 3.768791,3.663658 0.106216,-0.05103 0.128723,-0.485845 0.125602,-1.205738 -0.0031,-0.719898 -0.03192,-1.724883 -0.02826,-2.916181 0.0037,-1.191301 0.11947,-2.634175 0.246001,-4.099417 0.112187,-1.29913 0.472946,-2.719012 0.567056,-4.245882 z"
         sodipodi:nodetypes="czcsssssc" /><path
         id="path61"
         style="display:inline;opacity:1;fill:#808080;stroke:none;stroke-width:0;stroke-linecap:round;stroke-linejoin:round;stroke-dasharray:none"
         d="m 37.45371,19.244304 c -0.369169,3.675531 -0.521664,12.077173 0.01311,12.496202 0.536594,0.420455 6.670971,-3.900164 6.78296,-8.953457 -3.089462,-0.461779 -4.3778,-2.562966 -6.79607,-3.542745 z"
         sodipodi:nodetypes="cscc" /><path
         style="display:inline;opacity:1;fill:#000000;stroke:#000000;stroke-width:0.106413;stroke-linecap:round;stroke-linejoin:round;stroke-dasharray:none"
         d="m 29.696883,22.667538 c 0.140432,0.04545 0.194888,0.06199 0.3465,0.114345 -0.181844,2.092015 0.858044,3.598783 2.352384,5.34289 1.586889,1.852127 3.556339,3.765685 3.768769,3.66363 0.106217,-0.05103 0.128751,-0.485852 0.125614,-1.20575 -0.0032,-0.719898 -0.03189,-1.724859 -0.02824,-2.91616 0.0037,-1.191298 0.03971,-2.568936 0.166244,-4.03418 0.126531,-1.465241 0.275465,-3.029543 0.64099,-4.571269 0.165051,-1.25e-4 0.298854,-0.0035 0.516418,0.01263 -0.154734,5.083347 -0.665238,12.238615 -0.118749,12.666823 0.546493,0.428208 6.66545,-4.229479 6.800258,-9.224119 0.130793,-0.03051 0.261105,-0.06386 0.396705,-0.08995 -0.272415,5.427475 -2.786796,7.693461 -7.466028,10.978887 -0.561292,0.668996 -0.5971,0.834763 -1.080397,1.873299 -0.03552,-1.100195 -0.05302,-1.270853 -0.149038,-1.991857 -4.058685,-3.52293 -7.430854,-8.235176 -6.271434,-10.61922 z"
         id="path62"
         sodipodi:nodetypes="ccssssscczccccccc" /></g><g
       id="g73"
       inkscape:label="右2"
       transform="matrix(0.28188199,0,0,0.28195805,3.7671469,-7.602226)"
       style="fill:#554400;stroke:#554400;stroke-width:3.54711"><path
         style="display:inline;opacity:1;fill:#000000;stroke:#000000;stroke-width:0.106413;stroke-linecap:round;stroke-linejoin:round;stroke-dasharray:none"
         d="m 37.414534,18.052126 c -0.154748,-0.02454 -0.264274,0.461978 -0.337157,0.757504 0.19056,0.01941 0.334878,0.02327 0.566183,0.04775 -0.03344,-0.384781 -0.07428,-0.780693 -0.229026,-0.805252 z"
         id="path68"
         sodipodi:nodetypes="zccz" /><path
         style="display:inline;opacity:1;fill:#000000;stroke:#000000;stroke-width:0.106413;stroke-linecap:round;stroke-linejoin:round;stroke-dasharray:none"
         d="m 44.271789,21.518367 c -0.155933,0.01532 -0.08706,0.476428 -0.08295,0.780779 0.164064,-0.03334 0.292253,-0.08115 0.464078,-0.10745 -0.129529,-0.363865 -0.225194,-0.688647 -0.381124,-0.673329 z"
         id="path69"
         sodipodi:nodetypes="zccz" /><path
         style="display:inline;opacity:1;fill:#000000;stroke:#000000;stroke-width:0.106413;stroke-linecap:round;stroke-linejoin:round;stroke-dasharray:none"
         d="m 30.163203,21.962539 c -0.118122,-0.06085 -0.281248,0.299312 -0.418367,0.518 0.13221,0.05174 0.249244,0.08548 0.383746,0.145798 0.07515,-0.318796 0.152738,-0.60296 0.03462,-0.663798 z"
         id="path70"
         sodipodi:nodetypes="zccz" /><path
         id="path71"
         style="display:inline;opacity:1;fill:#808080;stroke:none;stroke-width:0;stroke-linecap:round;stroke-linejoin:round;stroke-dasharray:none"
         d="m 37.074941,19.321192 c -1.478298,1.368123 -2.356792,2.09498 -3.454984,2.674209 -1.098192,0.579229 -2.902751,1.110382 -3.779223,1.141035 -0.316108,1.969687 1.146388,3.344239 2.55502,4.988316 1.58689,1.852127 3.556358,3.765714 3.768791,3.663658 0.106216,-0.05103 0.128723,-0.485845 0.125602,-1.205738 -0.0031,-0.719898 -0.03192,-1.724883 -0.02826,-2.916181 0.0037,-1.191301 0.11947,-2.634175 0.246001,-4.099417 0.112187,-1.29913 0.472946,-2.719012 0.567056,-4.245882 z"
         sodipodi:nodetypes="czcsssssc" /><path
         id="path72"
         style="display:inline;opacity:1;fill:#808080;stroke:none;stroke-width:0;stroke-linecap:round;stroke-linejoin:round;stroke-dasharray:none"
         d="m 37.45371,19.244304 c -0.369169,3.675531 -0.521664,12.077173 0.01311,12.496202 0.536594,0.420455 6.670971,-3.900164 6.78296,-8.953457 -3.089462,-0.461779 -4.3778,-2.562966 -6.79607,-3.542745 z"
         sodipodi:nodetypes="cscc" /><path
         style="display:inline;opacity:1;fill:#000000;stroke:#000000;stroke-width:0.106413;stroke-linecap:round;stroke-linejoin:round;stroke-dasharray:none"
         d="m 29.696883,22.667538 c 0.140432,0.04545 0.194888,0.06199 0.3465,0.114345 -0.181844,2.092015 0.858044,3.598783 2.352384,5.34289 1.586889,1.852127 3.556339,3.765685 3.768769,3.66363 0.106217,-0.05103 0.128751,-0.485852 0.125614,-1.20575 -0.0032,-0.719898 -0.03189,-1.724859 -0.02824,-2.91616 0.0037,-1.191298 0.03971,-2.568936 0.166244,-4.03418 0.126531,-1.465241 0.275465,-3.029543 0.64099,-4.571269 0.165051,-1.25e-4 0.298854,-0.0035 0.516418,0.01263 -0.154734,5.083347 -0.665238,12.238615 -0.118749,12.666823 0.546493,0.428208 6.66545,-4.229479 6.800258,-9.224119 0.130793,-0.03051 0.261105,-0.06386 0.396705,-0.08995 -0.272415,5.427475 -2.786796,7.693461 -7.466028,10.978887 -0.561292,0.668996 -0.5971,0.834763 -1.080397,1.873299 -0.03552,-1.100195 -0.05302,-1.270853 -0.149038,-1.991857 -4.058685,-3.52293 -7.430854,-8.235176 -6.271434,-10.61922 z"
         id="path73"
         sodipodi:nodetypes="ccssssscczccccccc" /></g></g></svg>
