<?xml version="1.0" encoding="UTF-8" standalone="no"?>
<!-- Created with Inkscape (http://www.inkscape.org/) -->

<svg
   width="100"
   height="50"
   viewBox="0 0 26.458333 13.229166"
   version="1.1"
   id="svg1"
   xml:space="preserve"
   inkscape:version="1.3 (0e150ed6c4, 2023-07-21)"
   sodipodi:docname="鴨の足跡_001.svg"
   inkscape:export-filename="..\..\..\..\Users\tomoo\OneDrive\www\kamonegi\img\kamonegikun_footprints.svg"
   inkscape:export-xdpi="96"
   inkscape:export-ydpi="96"
   xmlns:inkscape="http://www.inkscape.org/namespaces/inkscape"
   xmlns:sodipodi="http://sodipodi.sourceforge.net/DTD/sodipodi-0.dtd"
   xmlns="http://www.w3.org/2000/svg"
   xmlns:svg="http://www.w3.org/2000/svg"><sodipodi:namedview
     id="namedview1"
     pagecolor="#ffffff"
     bordercolor="#000000"
     borderopacity="0.25"
     inkscape:showpageshadow="2"
     inkscape:pageopacity="0.0"
     inkscape:pagecheckerboard="0"
     inkscape:deskcolor="#d1d1d1"
     inkscape:document-units="mm"
     inkscape:zoom="11.313709"
     inkscape:cx="41.7193"
     inkscape:cy="24.262601"
     inkscape:window-width="1800"
     inkscape:window-height="1106"
     inkscape:window-x="-11"
     inkscape:window-y="-11"
     inkscape:window-maximized="1"
     inkscape:current-layer="layer3"
     showgrid="true"><inkscape:grid
       id="grid24"
       units="px"
       originx="0"
       originy="0"
       spacingx="0.26458333"
       spacingy="0.26458333"
       empcolor="#0099e5"
       empopacity="0.30196078"
       color="#0099e5"
       opacity="0.14901961"
       empspacing="5"
       dotted="false"
       gridanglex="30"
       gridanglez="30"
       visible="true" /></sodipodi:namedview><defs
     id="defs1" /><g
     inkscape:groupmode="layer"
     id="layer3"
     inkscape:label="足跡"
     style="opacity:0.2"><g
       id="g20"
       inkscape:label="左"
       transform="translate(0,0.31869192)"><path
         id="path16"
         style="display:inline;fill:#808080;stroke:#000000;stroke-width:0.1;stroke-linecap:round;stroke-linejoin:round;stroke-dasharray:none"
         d="M 6.9492004,3.8505993 C 7.7469343,4.244757 8.0331978,4.4464625 8.3023211,4.6178479 8.5714444,4.7892332 8.8386346,4.9038236 9.4166492,5.1202058 9.4001921,5.8123523 9.1050688,6.340378 8.6438726,6.9414483 8.0488098,7.7169849 7.3321815,8.1165277 7.2601356,8.0819103 7.2241127,8.0646016 7.0988426,7.9433988 7.0999008,7.6992155 7.1009719,7.4550306 7.0816225,7.0896414 7.0904937,6.6837815 7.0992954,6.2811039 7.0482972,5.8865872 7.0352009,5.3263566 7.0248644,4.8841807 6.9832934,4.3710116 6.9513762,3.8531071 Z"
         sodipodi:nodetypes="czcssssscc" /><path
         id="path17"
         style="display:inline;fill:#808080;stroke:#000000;stroke-width:0.1;stroke-linecap:round;stroke-linejoin:round;stroke-dasharray:none"
         d="M 6.8683959,3.8518319 C 6.9274524,5.1316211 7.0226755,8.0178284 6.810206,8.107003 6.3719073,8.2909594 4.5279046,6.7005501 4.4899233,4.9865038 5.5873121,4.8314822 6.1409281,4.3777717 6.8683959,3.8518319 Z"
         sodipodi:nodetypes="csccc" /><path
         style="display:inline;fill:#000000;stroke:#000000;stroke-width:0.03;stroke-linecap:round;stroke-linejoin:round;stroke-dasharray:none"
         d="m 6.9309127,3.3955552 c 0.052955,-0.00442 0.077784,0.1629027 0.095014,0.264697 -0.064938,0.00178 -0.1138454,-5.329e-4 -0.1926909,0.00194 0.020969,-0.1293184 0.044723,-0.2622156 0.097677,-0.2666397 z"
         id="path13"
         sodipodi:nodetypes="zccz" /><path
         style="display:inline;fill:#000000;stroke:#000000;stroke-width:0.03;stroke-linecap:round;stroke-linejoin:round;stroke-dasharray:none"
         d="m 4.4684219,4.5748775 c 0.052779,-0.00616 0.063203,0.1516353 0.083784,0.2528073 -0.056775,7.894e-4 -0.1027029,-0.00583 -0.1615421,-0.00217 0.016691,-0.1299359 0.024978,-0.2444777 0.077758,-0.2506387 z"
         id="path14"
         sodipodi:nodetypes="zccz"
         inkscape:label="path14" /><path
         style="display:inline;fill:#000000;stroke:#000000;stroke-width:0.03;stroke-linecap:round;stroke-linejoin:round;stroke-dasharray:none"
         d="m 9.4082802,4.7167709 c 0.044688,-0.00582 0.055269,0.1278643 0.073839,0.2134186 -0.048134,0.00127 -0.089354,-0.00141 -0.139208,0.00237 0.012724,-0.1103654 0.020684,-0.2099615 0.065368,-0.2157813 z"
         id="path15"
         sodipodi:nodetypes="zccz" /><path
         style="display:inline;fill:#000000;stroke:#000000;stroke-width:0.03;stroke-linecap:round;stroke-linejoin:round;stroke-dasharray:none"
         d="m 9.497794,5.0096453 c -0.038665,0 -0.094107,-0.00169 -0.1616911,0.00237 C 9.260607,5.8587621 9.0305552,6.2984066 8.5312675,6.8610883 8.0020704,7.4574761 7.5001446,7.9569665 7.3712298,7.9247725 7.3157723,7.9109256 7.2164732,7.9170892 7.2175373,7.6729062 7.2186085,7.4287212 7.2283531,7.0878443 7.2271157,6.6837626 7.2258754,6.2796818 7.2136473,5.8123955 7.1707348,5.3153937 7.1278222,4.8183923 7.1334623,4.2970606 7.0692866,3.7670841 c -0.055976,-4.3e-5 -0.1926763,-0.00549 -0.2664622,0 C 6.8236498,5.4983574 7.0020588,7.639067 6.7393428,7.8440956 6.4766266,8.0491245 4.6087395,6.6008027 4.5630195,4.9066511 4.4999208,4.9042826 4.433593,4.9065166 4.3776567,4.9063702 4.4700458,6.7473368 5.1708945,7.4629763 6.7578374,8.5773726 6.8632359,8.7387575 6.8791664,8.7819156 7.0130036,8.9740632 7.1437497,8.7937267 7.1810157,8.7095188 7.2889163,8.5755136 8.8623619,7.2085145 9.7063591,5.950154 9.4977952,5.0096264 Z"
         id="path18"
         sodipodi:nodetypes="ccssssscczccccccc" /></g><g
       id="g32"
       inkscape:label="右2"
       transform="matrix(0.28188199,0,0,0.28195805,3.7057368,-1.0754672)"
       style="fill:#554400;stroke:#554400;stroke-width:3.54711"><path
         id="path31"
         style="display:inline;opacity:1;fill:#808080;stroke:#000000;stroke-width:0.354711;stroke-linecap:round;stroke-linejoin:round;stroke-dasharray:none"
         d="m 44.72416,6.963609 c -0.444166,4.421638 -0.719343,14.248494 0.347626,14.929179 1.455049,0.928264 8.125988,-4.841542 8.26073,-10.920625 -2.844039,-0.292019 -5.670689,-2.3840451 -8.608356,-4.008554 0,0 0.22815,0.051839 0,0 z"
         sodipodi:nodetypes="csccc"
         transform="translate(-6.3783656,34.91949)" /><path
         id="path30"
         style="display:inline;opacity:1;fill:#808080;stroke:#000000;stroke-width:0.354711;stroke-linecap:round;stroke-linejoin:round;stroke-dasharray:none"
         d="m 44.6003,6.9524276 c -1.938164,1.3357241 -3.094168,2.1193773 -4.440594,2.8295475 -1.346427,0.7101699 -1.661602,0.9497069 -4.273765,1.5688599 -0.380326,2.369524 1.701999,5.243022 2.866821,6.627666 1.219068,1.449127 3.987159,4.500097 4.81442,4.282945 0.866292,-0.227397 0.634211,-1.195105 0.59705,-2.093293 -0.0358,-0.865301 -0.132755,-1.733229 -0.101147,-3.166011 0.03162,-1.433126 0.121988,-2.794636 0.231257,-4.751337 0.08746,-1.566223 0.192738,-3.4615632 0.305967,-5.2983774 z"
         sodipodi:nodetypes="czcssssscc"
         transform="translate(-6.3783656,34.91949)" /><path
         style="display:inline;opacity:1;fill:#000000;stroke:#000000;stroke-width:0.106413;stroke-linecap:round;stroke-linejoin:round;stroke-dasharray:none"
         d="m 44.672905,5.3296619 c -0.187862,-0.015689 -0.275946,0.5777551 -0.337071,0.9387816 0.230372,0.00633 0.403876,-0.00189 0.683587,0.00689 -0.07439,-0.4586442 -0.158657,-0.9299811 -0.346516,-0.9456716 z"
         id="path27"
         sodipodi:nodetypes="zccz"
         transform="translate(-6.3783656,34.91949)" /><path
         style="display:inline;opacity:1;fill:#000000;stroke:#000000;stroke-width:0.106413;stroke-linecap:round;stroke-linejoin:round;stroke-dasharray:none"
         d="m 53.408798,9.512278 c -0.18724,-0.02186 -0.224218,0.537794 -0.297232,0.896613 0.201413,0.0028 0.364348,-0.02069 0.573085,-0.0077 -0.05921,-0.460834 -0.08861,-0.867071 -0.275854,-0.888922 z"
         id="path28"
         sodipodi:nodetypes="zccz"
         inkscape:label="path14"
         transform="translate(-6.3783656,34.91949)" /><path
         style="display:inline;opacity:1;fill:#000000;stroke:#000000;stroke-width:0.106413;stroke-linecap:round;stroke-linejoin:round;stroke-dasharray:none"
         d="m 35.884236,10.015521 c -0.158535,-0.02065 -0.196072,0.453487 -0.26195,0.756916 0.170759,0.0045 0.316992,-0.005 0.493852,0.0084 -0.04514,-0.391425 -0.07338,-0.744655 -0.231897,-0.765296 z"
         id="path29"
         sodipodi:nodetypes="zccz"
         transform="translate(-6.3783656,34.91949)" /><path
         style="display:inline;opacity:1;fill:#000000;stroke:#000000;stroke-width:0.106413;stroke-linecap:round;stroke-linejoin:round;stroke-dasharray:none"
         d="m 35.566678,11.054237 c 0.137169,0 0.333852,-0.006 0.573613,0.0084 0.267828,3.003101 1.083956,4.562356 2.855221,6.557978 1.877371,2.115165 3.657995,3.886671 4.115331,3.772491 0.19674,-0.04911 0.549012,-0.02725 0.545237,-0.893276 -0.0038,-0.866033 -0.03837,-2.074996 -0.03398,-3.508123 0.0044,-1.433124 0.04778,-3.090414 0.200016,-4.853094 0.152236,-1.762679 0.132227,-3.611648 0.359896,-5.4912769 0.19858,-1.525e-4 0.683535,-0.01946 0.945297,0 -0.07388,6.1401809 -0.706801,13.7324789 0.225206,14.4596389 0.932008,0.727161 7.558494,-4.409496 7.72069,-10.41802 0.223848,-0.0084 0.459151,-4.77e-4 0.65759,-9.96e-4 -0.327758,6.529222 -2.814078,9.067328 -8.443891,13.019676 -0.37391,0.55149 -0.50281,0.780274 -0.952691,1.542822 -0.556159,-0.778508 -0.579681,-0.965288 -0.931356,-1.549415 -5.58193,-4.848236 -8.576081,-9.311171 -7.836183,-12.646872 z"
         id="path32"
         sodipodi:nodetypes="ccssssscczccccccc"
         transform="translate(-6.3783656,34.91949)" /></g><g
       id="g9"
       inkscape:label="右2"
       transform="matrix(0.28188199,0,0,0.28195805,3.7057368,-14.304637)"
       style="fill:#554400;stroke:#554400;stroke-width:3.54711"><path
         id="path1"
         style="display:inline;opacity:1;fill:#808080;stroke:#000000;stroke-width:0.354711;stroke-linecap:round;stroke-linejoin:round;stroke-dasharray:none"
         d="m 44.72416,6.963609 c -0.444166,4.421638 -0.719343,14.248494 0.347626,14.929179 1.455049,0.928264 8.125988,-4.841542 8.26073,-10.920625 -2.844039,-0.292019 -5.670689,-2.3840451 -8.608356,-4.008554 0,0 0.22815,0.051839 0,0 z"
         sodipodi:nodetypes="csccc"
         transform="translate(-6.3783656,34.91949)" /><path
         id="path2"
         style="display:inline;opacity:1;fill:#808080;stroke:#000000;stroke-width:0.354711;stroke-linecap:round;stroke-linejoin:round;stroke-dasharray:none"
         d="m 44.6003,6.9524276 c -1.938164,1.3357241 -3.094168,2.1193773 -4.440594,2.8295475 -1.346427,0.7101699 -1.661602,0.9497069 -4.273765,1.5688599 -0.380326,2.369524 1.701999,5.243022 2.866821,6.627666 1.219068,1.449127 3.987159,4.500097 4.81442,4.282945 0.866292,-0.227397 0.634211,-1.195105 0.59705,-2.093293 -0.0358,-0.865301 -0.132755,-1.733229 -0.101147,-3.166011 0.03162,-1.433126 0.121988,-2.794636 0.231257,-4.751337 0.08746,-1.566223 0.192738,-3.4615632 0.305967,-5.2983774 z"
         sodipodi:nodetypes="czcssssscc"
         transform="translate(-6.3783656,34.91949)" /><path
         style="display:inline;opacity:1;fill:#000000;stroke:#000000;stroke-width:0.106413;stroke-linecap:round;stroke-linejoin:round;stroke-dasharray:none"
         d="m 44.672905,5.3296619 c -0.187862,-0.015689 -0.275946,0.5777551 -0.337071,0.9387816 0.230372,0.00633 0.403876,-0.00189 0.683587,0.00689 -0.07439,-0.4586442 -0.158657,-0.9299811 -0.346516,-0.9456716 z"
         id="path3"
         sodipodi:nodetypes="zccz"
         transform="translate(-6.3783656,34.91949)" /><path
         style="display:inline;opacity:1;fill:#000000;stroke:#000000;stroke-width:0.106413;stroke-linecap:round;stroke-linejoin:round;stroke-dasharray:none"
         d="m 53.408798,9.512278 c -0.18724,-0.02186 -0.224218,0.537794 -0.297232,0.896613 0.201413,0.0028 0.364348,-0.02069 0.573085,-0.0077 -0.05921,-0.460834 -0.08861,-0.867071 -0.275854,-0.888922 z"
         id="path4"
         sodipodi:nodetypes="zccz"
         inkscape:label="path14"
         transform="translate(-6.3783656,34.91949)" /><path
         style="display:inline;opacity:1;fill:#000000;stroke:#000000;stroke-width:0.106413;stroke-linecap:round;stroke-linejoin:round;stroke-dasharray:none"
         d="m 35.884236,10.015521 c -0.158535,-0.02065 -0.196072,0.453487 -0.26195,0.756916 0.170759,0.0045 0.316992,-0.005 0.493852,0.0084 -0.04514,-0.391425 -0.07338,-0.744655 -0.231897,-0.765296 z"
         id="path6"
         sodipodi:nodetypes="zccz"
         transform="translate(-6.3783656,34.91949)" /><path
         style="display:inline;opacity:1;fill:#000000;stroke:#000000;stroke-width:0.106413;stroke-linecap:round;stroke-linejoin:round;stroke-dasharray:none"
         d="m 35.566678,11.054237 c 0.137169,0 0.333852,-0.006 0.573613,0.0084 0.267828,3.003101 1.083956,4.562356 2.855221,6.557978 1.877371,2.115165 3.657995,3.886671 4.115331,3.772491 0.19674,-0.04911 0.549012,-0.02725 0.545237,-0.893276 -0.0038,-0.866033 -0.03837,-2.074996 -0.03398,-3.508123 0.0044,-1.433124 0.04778,-3.090414 0.200016,-4.853094 0.152236,-1.762679 0.132227,-3.611648 0.359896,-5.4912769 0.19858,-1.525e-4 0.683535,-0.01946 0.945297,0 -0.07388,6.1401809 -0.706801,13.7324789 0.225206,14.4596389 0.932008,0.727161 7.558494,-4.409496 7.72069,-10.41802 0.223848,-0.0084 0.459151,-4.77e-4 0.65759,-9.96e-4 -0.327758,6.529222 -2.814078,9.067328 -8.443891,13.019676 -0.37391,0.55149 -0.50281,0.780274 -0.952691,1.542822 -0.556159,-0.778508 -0.579681,-0.965288 -0.931356,-1.549415 -5.58193,-4.848236 -8.576081,-9.311171 -7.836183,-12.646872 z"
         id="path9"
         sodipodi:nodetypes="ccssssscczccccccc"
         transform="translate(-6.3783656,34.91949)" /></g></g></svg>
