<?xml version="1.0" encoding="UTF-8" standalone="no"?>
<!-- Created with Inkscape (http://www.inkscape.org/) -->

<svg
   width="230"
   height="100"
   viewBox="0 0 60.854165 26.458333"
   version="1.1"
   id="svg1"
   inkscape:export-filename="..\..\..\..\Users\tomoo\OneDrive\www\kamonegi\img\kamonegikun_title_left.svg"
   inkscape:export-xdpi="96"
   inkscape:export-ydpi="96"
   inkscape:version="1.4.2 (f4327f4, 2025-05-13)"
   sodipodi:docname="kamonegikun_title_left_S.svg"
   xmlns:inkscape="http://www.inkscape.org/namespaces/inkscape"
   xmlns:sodipodi="http://sodipodi.sourceforge.net/DTD/sodipodi-0.dtd"
   xmlns:xlink="http://www.w3.org/1999/xlink"
   xmlns="http://www.w3.org/2000/svg"
   xmlns:svg="http://www.w3.org/2000/svg">
  <sodipodi:namedview
     id="namedview1"
     pagecolor="#ffff00"
     bordercolor="#000000"
     borderopacity="0.25"
     inkscape:showpageshadow="2"
     inkscape:pageopacity="0.0"
     inkscape:pagecheckerboard="0"
     inkscape:deskcolor="#d1d1d1"
     inkscape:document-units="mm"
     inkscape:export-bgcolor="#ffff00ff"
     inkscape:zoom="2.775898"
     inkscape:cx="128.78715"
     inkscape:cy="37.645475"
     inkscape:window-width="1920"
     inkscape:window-height="1111"
     inkscape:window-x="-9"
     inkscape:window-y="-9"
     inkscape:window-maximized="1"
     inkscape:current-layer="layer1"
     showgrid="true"
     showguides="true">
    <inkscape:grid
       id="grid4"
       units="px"
       originx="0"
       originy="0"
       spacingx="0.26458333"
       spacingy="0.26458333"
       empcolor="#0099e5"
       empopacity="0.30196078"
       color="#0099e5"
       opacity="0.14901961"
       empspacing="5"
       dotted="false"
       gridanglex="30"
       gridanglez="30"
       visible="true" />
  </sodipodi:namedview>
  <defs
     id="defs1" />
  <g
     inkscape:label="Layer 1"
     inkscape:groupmode="layer"
     id="layer1">
    <g
       id="g1"
       inkscape:label="タイトル"
       transform="matrix(1.0308657,0,0,1.0308657,0.38399252,-0.9619224)">
      <path
         style="font-size:7.05556px;line-height:8px;font-family:'site seeing shop';-inkscape-font-specification:'site seeing shop';letter-spacing:0.79375px;word-spacing:0.41275px;fill:none;stroke:#008000;stroke-width:1;stroke-linecap:butt;stroke-dasharray:none;paint-order:stroke fill markers"
         sodipodi:type="inkscape:offset"
         inkscape:radius="0"
         inkscape:original="M 38.335938 15.455078 L 38.335938 17.171875 L 39.232422 17.171875 L 39.232422 15.455078 L 38.335938 15.455078 z M 39.427734 15.455078 L 39.427734 17.171875 L 40.289062 17.171875 L 40.289062 15.455078 L 39.427734 15.455078 z M 24.345703 15.552734 L 24.345703 16.244141 L 22.865234 16.244141 L 22.865234 17.871094 L 24.371094 17.871094 C 24.316847 18.332244 24.316847 18.762156 24.371094 19.158203 C 24.430772 19.548826 24.328774 19.886287 24.068359 20.173828 C 23.81337 20.461368 23.548175 20.730905 23.271484 20.980469 C 23.000219 21.230033 22.793402 21.439238 22.652344 21.607422 L 23.736328 22.779297 L 24.003906 22.576172 L 24.345703 22.576172 L 24.345703 23.820312 L 25.851562 23.820312 L 25.851562 20.703125 L 28.521484 18.074219 L 29.683594 18.074219 L 29.683594 20.996094 L 28.113281 20.996094 L 28.113281 23.876953 L 31.207031 23.876953 L 31.207031 22.632812 L 32.125 22.632812 L 32.125 20.996094 L 31.207031 20.996094 L 31.207031 16.447266 L 27.845703 16.447266 L 26.314453 17.839844 L 26.314453 16.244141 L 25.851562 16.244141 L 25.851562 15.552734 L 24.345703 15.552734 z M 5.3808594 15.560547 L 5.3808594 17.585938 L 3.1757812 17.585938 L 3.1757812 19.083984 L 5.3808594 19.083984 L 5.3808594 23.894531 L 7.3183594 23.894531 L 7.3183594 19.083984 L 9.6542969 19.083984 L 9.6542969 23.894531 L 11.548828 23.894531 L 11.548828 17.585938 L 7.3183594 17.585938 L 7.3183594 15.560547 L 5.3808594 15.560547 z M 48.154297 15.560547 L 48.154297 23.796875 C 48.501518 23.748028 48.875871 23.750441 49.277344 23.804688 C 49.678816 23.864365 50.011504 23.77387 50.277344 23.535156 C 50.548609 23.296443 50.81337 23.038409 51.068359 22.761719 C 51.323349 22.485028 51.579428 22.22222 51.839844 21.972656 L 51.888672 21.972656 L 51.888672 23.748047 L 55.111328 23.748047 L 55.111328 21.826172 L 53.761719 21.826172 C 53.729165 21.549481 53.729165 21.265623 53.761719 20.972656 C 53.794271 20.674264 53.771265 20.399955 53.695312 20.150391 C 53.624783 19.895401 53.46636 19.679035 53.216797 19.5 C 52.972657 19.315539 52.768227 19.115882 52.605469 18.904297 L 50.050781 21.386719 L 50.001953 21.386719 L 50.001953 15.560547 L 48.154297 15.560547 z M 12.429688 15.59375 L 12.429688 17.017578 L 16.189453 17.017578 L 16.189453 18.253906 L 12.429688 18.253906 L 12.429688 19.677734 L 16.189453 19.677734 L 16.189453 23.933594 L 21.748047 23.933594 L 21.748047 22.509766 L 17.541016 22.509766 L 17.541016 19.677734 L 21.748047 19.677734 L 21.748047 18.253906 L 17.541016 18.253906 L 17.541016 17.017578 L 21.748047 17.017578 L 21.748047 15.59375 L 12.429688 15.59375 z M 34.804688 15.601562 L 34.804688 15.951172 L 33.167969 15.951172 L 33.167969 17.675781 L 34.804688 17.675781 L 34.804688 18.181641 L 33.144531 18.181641 L 33.144531 19.898438 L 34.625 19.898438 L 33.03125 21.533203 L 35.634766 24.210938 L 36.830078 23.023438 L 35.488281 21.615234 C 35.585936 21.474176 35.695096 21.341579 35.814453 21.216797 C 35.93381 21.092015 36.068794 20.971353 36.220703 20.857422 C 36.37262 20.74349 36.45639 20.603731 36.472656 20.435547 C 36.488923 20.261938 36.488923 20.082899 36.472656 19.898438 L 38.132812 19.898438 L 38.132812 18.181641 L 36.472656 18.181641 L 36.472656 17.675781 L 38.158203 17.675781 L 38.158203 15.951172 L 36.472656 15.951172 L 36.472656 15.601562 L 34.804688 15.601562 z M 45.304688 15.642578 L 41.226562 19.646484 L 45.304688 23.804688 L 46.492188 22.664062 L 43.626953 19.726562 L 46.443359 16.830078 L 45.304688 15.642578 z "
         xlink:href="#text1"
         id="path3"
         inkscape:href="#text1"
         d="m 38.335938,15.455078 v 1.716797 h 0.896484 v -1.716797 z m 1.091796,0 v 1.716797 h 0.861328 v -1.716797 z m -15.082031,0.09766 v 0.691407 h -1.480469 v 1.626953 h 1.50586 c -0.05425,0.46115 -0.05425,0.891062 0,1.287109 0.05968,0.390623 -0.04232,0.728084 -0.302735,1.015625 -0.254989,0.28754 -0.520184,0.557077 -0.796875,0.806641 -0.271265,0.249564 -0.478082,0.458769 -0.61914,0.626953 l 1.083984,1.171875 0.267578,-0.203125 h 0.341797 v 1.24414 h 1.505859 v -3.117187 l 2.669922,-2.628906 h 1.16211 v 2.921875 h -1.570313 v 2.880859 h 3.09375 V 22.632812 H 32.125 v -1.636718 h -0.917969 v -4.548828 h -3.361328 l -1.53125,1.392578 v -1.595703 h -0.462891 v -0.691407 z m -18.9648436,0.0078 v 2.025391 H 3.1757812 v 1.498046 h 2.2050782 v 4.810547 h 1.9375 v -4.810547 h 2.3359375 v 4.810547 H 11.548828 V 17.585938 H 7.3183594 v -2.025391 z m 42.7734376,0 v 8.236328 c 0.347221,-0.04885 0.721574,-0.04643 1.123047,0.0078 0.401472,0.05968 0.73416,-0.03082 1,-0.269532 0.271265,-0.238713 0.536026,-0.496747 0.791015,-0.773437 0.25499,-0.276691 0.511069,-0.539499 0.771485,-0.789063 h 0.04883 v 1.775391 h 3.222656 v -1.921875 h -1.349609 c -0.03255,-0.276691 -0.03255,-0.560549 0,-0.853516 0.03255,-0.298392 0.0095,-0.572701 -0.06641,-0.822265 -0.07053,-0.25499 -0.228952,-0.471356 -0.478515,-0.650391 -0.24414,-0.184461 -0.44857,-0.384118 -0.611328,-0.595703 l -2.554688,2.482422 h -0.04883 v -5.826172 z m -35.724609,0.0332 v 1.423828 h 3.759765 v 1.236328 h -3.759765 v 1.423828 h 3.759765 v 4.25586 h 5.558594 v -1.423828 h -4.207031 v -2.832032 h 4.207031 v -1.423828 h -4.207031 v -1.236328 h 4.207031 V 15.59375 Z m 22.375,0.0078 v 0.34961 h -1.636719 v 1.724609 h 1.636719 v 0.50586 h -1.660157 v 1.716797 H 34.625 l -1.59375,1.634765 2.603516,2.677735 1.195312,-1.1875 -1.341797,-1.408204 c 0.09765,-0.141058 0.206815,-0.273655 0.326172,-0.398437 0.119357,-0.124782 0.254341,-0.245444 0.40625,-0.359375 0.151917,-0.113932 0.235687,-0.253691 0.251953,-0.421875 0.01627,-0.173609 0.01627,-0.352648 0,-0.537109 h 1.660156 v -1.716797 h -1.660156 v -0.50586 h 1.685547 v -1.724609 h -1.685547 v -0.34961 z m 10.5,0.04102 -4.078126,4.003906 4.078126,4.158204 1.1875,-1.140626 -2.865235,-2.9375 2.816406,-2.896484 z" />
      <path
         style="font-size:7.05556px;line-height:8px;font-family:'site seeing shop';-inkscape-font-specification:'site seeing shop';letter-spacing:0.79375px;word-spacing:0.41275px;fill:#ffffff;stroke:none;stroke-width:0.8;stroke-dasharray:none;paint-order:stroke fill markers"
         d="M 5.381075,23.893747 V 19.084215 H 3.1756889 V 17.586831 H 5.381075 v -2.02635 h 1.9368327 v 2.02635 h 4.2317363 v 6.306916 H 9.653499 V 19.084215 H 7.3179077 v 4.809532 z m 10.808832,0.04068 v -4.256149 h -3.759738 v -1.424143 h 3.759738 v -1.236966 h -3.759738 v -1.424141 h 9.317962 v 1.424141 h -4.207324 v 1.236971 h 4.207324 v 1.424143 h -4.207324 v 2.832009 h 4.207324 v 1.424141 z m 11.923731,-0.05696 V 20.99663 h 1.570626 v -2.921522 h -1.163728 l -2.66925,2.628559 v 3.116837 H 24.345764 V 22.575397 H 24.00397 l -0.268551,0.203448 -1.08235,-1.171866 q 0.211587,-0.252276 0.618485,-0.626623 0.415036,-0.374346 0.79752,-0.805656 0.390622,-0.431311 0.301104,-1.017245 -0.08137,-0.594071 0,-1.285797 h -1.505522 v -1.627593 h 1.481108 V 15.55234 h 1.505522 v 0.691725 h 0.463864 v 1.595047 l 1.529936,-1.391594 h 3.360975 v 4.549118 h 0.91959 v 1.635729 h -0.91959 v 1.245107 z m 7.521098,0.333656 -2.604146,-2.677386 1.59504,-1.635732 h -1.481107 v -1.717108 h 1.660142 V 17.67634 h -1.635728 v -1.725246 h 1.635728 V 15.60116 h 1.668281 v 0.349934 h 1.684558 v 1.725246 h -1.684558 v 0.504553 h 1.660143 v 1.717108 h -1.660143 q 0.0244,0.276692 0,0.537106 -0.0244,0.252276 -0.252276,0.423174 -0.227863,0.170897 -0.406898,0.35807 -0.179036,0.187173 -0.325518,0.398761 l 1.342763,1.407864 z m 2.701802,-7.039332 v -1.71711 h 0.895176 v 1.717109 z m 1.090486,0 v -1.71711 h 0.862624 v 1.717109 z m 5.877232,6.632433 -4.077116,-4.158494 4.077116,-4.003876 1.139313,1.188142 -2.815733,2.897113 2.864561,2.937802 z m 2.849909,-0.0081 v -8.235639 h 1.847316 v 5.826776 h 0.04883 l 2.555319,-2.482075 q 0.244138,0.317378 0.610348,0.594069 0.374344,0.268552 0.480138,0.651036 0.113928,0.374346 0.0651,0.821935 -0.04883,0.43945 0,0.854486 h 1.3509 v 1.920556 h -3.222627 v -1.774051 h -0.04883 q -0.390623,0.374346 -0.773107,0.789382 -0.382484,0.415036 -0.789382,0.773106 -0.39876,0.35807 -1.000968,0.268553 -0.602209,-0.08137 -1.12304,-0.0081 z"
         id="text1"
         inkscape:label="カモねぎくん"
         aria-label="カモねぎくん" />
      <path
         style="font-size:7.05556px;line-height:8px;font-family:'AR PShounanShinpitsuGyosyoJIS';-inkscape-font-specification:'AR PShounanShinpitsuGyosyoJIS, Normal';letter-spacing:0.79375px;word-spacing:0.41275px;fill:none;stroke:#008000;stroke-width:1;stroke-linecap:butt;stroke-linejoin:miter;stroke-dasharray:none;paint-order:stroke fill markers"
         sodipodi:type="inkscape:offset"
         inkscape:radius="0"
         inkscape:original="M 20.900391 3.3144531 L 19.646484 4.4941406 L 22.193359 7.0976562 L 23.398438 5.9257812 L 20.900391 3.3144531 z M 33.240234 3.875 L 33.240234 12.111328 C 33.587452 12.062518 33.96181 12.064861 34.363281 12.119141 C 34.764754 12.178821 35.097441 12.088327 35.363281 11.849609 C 35.634546 11.610895 35.899308 11.354816 36.154297 11.078125 C 36.409286 10.801434 36.667319 10.536673 36.927734 10.287109 L 36.974609 10.287109 L 36.974609 12.0625 L 40.197266 12.0625 L 40.197266 10.140625 L 38.847656 10.140625 C 38.815106 9.8639345 38.815106 9.5800769 38.847656 9.2871094 C 38.880205 8.9887182 38.85723 8.7144086 38.78125 8.4648438 C 38.710715 8.2098554 38.552298 7.9934889 38.302734 7.8144531 C 38.058595 7.6299925 37.854166 7.4303368 37.691406 7.21875 L 35.136719 9.7011719 L 35.087891 9.7011719 L 35.087891 3.875 L 33.240234 3.875 z M 41.828125 3.875 L 41.828125 9.3691406 L 43.722656 9.3691406 L 43.722656 3.875 L 41.828125 3.875 z M 26.605469 3.9003906 L 26.605469 5.046875 L 24.408203 5.046875 L 24.408203 6.5195312 L 26.605469 6.5195312 L 26.605469 7.2695312 L 24.408203 7.2695312 L 24.408203 8.7421875 L 26.605469 8.7421875 L 26.605469 11.09375 L 27.746094 12.183594 L 30.666016 12.183594 L 31.570312 11.28125 L 30.431641 10.052734 L 29.707031 10.710938 C 28.952914 10.803168 28.55078 10.738053 28.501953 10.515625 L 28.501953 8.7421875 L 31.457031 8.7421875 L 31.457031 7.2695312 L 28.501953 7.2695312 L 28.501953 6.5195312 L 31.457031 6.5195312 L 31.457031 5.046875 L 28.501953 5.046875 L 28.501953 3.9003906 L 26.605469 3.9003906 z M 16.375 3.9082031 L 16.375 4.9746094 L 14.511719 4.9746094 L 14.511719 6.7148438 L 16.375 6.7148438 L 16.375 12.208984 L 18.068359 12.208984 L 18.068359 6.7148438 C 18.285372 6.6985687 18.490236 6.7033508 18.685547 6.7304688 C 18.880858 6.7575987 19.047961 6.8595932 19.183594 7.0332031 C 19.319227 7.2013871 19.461373 7.3526494 19.613281 7.4882812 C 19.770615 7.6184895 19.917102 7.7625887 20.052734 7.9199219 L 20.052734 12.208984 L 21.738281 12.208984 L 21.738281 7.1210938 L 21.720703 7.0976562 C 21.460293 6.8101144 21.19032 6.5473078 20.908203 6.3085938 C 20.631512 6.0698796 20.368705 5.7931822 20.119141 5.4785156 C 19.875003 5.1638454 19.563366 4.9986986 19.183594 4.9824219 C 18.809248 4.9607135 18.43728 4.9583339 18.068359 4.9746094 L 18.068359 3.9082031 L 16.375 3.9082031 z M 41.828125 10.287109 L 41.828125 12.208984 L 43.722656 12.208984 L 43.722656 10.287109 L 41.828125 10.287109 z "
         xlink:href="#path1"
         id="path4"
         inkscape:href="#path1"
         d="m 20.900391,3.3144531 -1.253907,1.1796875 2.546875,2.6035156 1.205079,-1.171875 z M 33.240234,3.875 v 8.236328 c 0.347218,-0.04881 0.721576,-0.04647 1.123047,0.0078 0.401473,0.05968 0.73416,-0.03081 1,-0.269532 0.271265,-0.238714 0.536027,-0.494793 0.791016,-0.771484 0.254989,-0.276691 0.513022,-0.541452 0.773437,-0.791016 h 0.04687 V 12.0625 h 3.222657 v -1.921875 h -1.34961 c -0.03255,-0.2766905 -0.03255,-0.5605481 0,-0.8535156 0.03255,-0.2983912 0.0096,-0.5727008 -0.06641,-0.8222656 C 38.710715,8.2098554 38.552298,7.9934889 38.302734,7.8144531 38.058595,7.6299925 37.854166,7.4303368 37.691406,7.21875 l -2.554687,2.4824219 h -0.04883 V 3.875 Z m 8.587891,0 v 5.4941406 h 1.894531 V 3.875 Z M 26.605469,3.9003906 V 5.046875 h -2.197266 v 1.4726562 h 2.197266 v 0.75 h -2.197266 v 1.4726563 h 2.197266 V 11.09375 l 1.140625,1.089844 h 2.919922 l 0.904296,-0.902344 -1.138671,-1.228516 -0.72461,0.658204 c -0.754117,0.09223 -1.156251,0.02712 -1.205078,-0.195313 V 8.7421875 h 2.955078 V 7.2695312 h -2.955078 v -0.75 h 2.955078 V 5.046875 H 28.501953 V 3.9003906 Z M 16.375,3.9082031 V 4.9746094 H 14.511719 V 6.7148438 H 16.375 v 5.4941402 h 1.693359 V 6.7148438 c 0.217013,-0.016275 0.421877,-0.011493 0.617188,0.015625 0.195311,0.02713 0.362414,0.1291244 0.498047,0.3027343 0.135633,0.168184 0.277779,0.3194463 0.429687,0.4550781 0.157334,0.1302083 0.303821,0.2743075 0.439453,0.4316407 v 4.2890621 h 1.685547 V 7.1210938 l -0.01758,-0.023438 C 21.460293,6.8101144 21.19032,6.5473078 20.908203,6.3085938 20.631512,6.0698796 20.368705,5.7931822 20.119141,5.4785156 19.875003,5.1638454 19.563366,4.9986986 19.183594,4.9824219 18.809248,4.9607135 18.43728,4.9583339 18.068359,4.9746094 V 3.9082031 Z m 25.453125,6.3789059 v 1.921875 h 1.894531 v -1.921875 z" />
      <path
         id="path1"
         style="font-size:7.05556px;line-height:8px;font-family:'AR PShounanShinpitsuGyosyoJIS';-inkscape-font-specification:'AR PShounanShinpitsuGyosyoJIS, Normal';letter-spacing:0.79375px;word-spacing:0.41275px;fill:#ffffff;stroke:none;stroke-width:0.8;stroke-dasharray:none;paint-order:stroke fill markers"
         d="m 20.900016,3.3134928 -1.25367,1.1802898 2.547648,2.6039759 1.204061,-1.1720226 z m 12.340333,0.5617228 v 8.2356734 c 0.347218,-0.04881 0.721457,-0.04598 1.122928,0.0083 0.401473,0.05968 0.735133,-0.03 1.000973,-0.268718 0.271265,-0.238714 0.53411,-0.496388 0.789099,-0.773079 0.254989,-0.276691 0.513181,-0.540052 0.773596,-0.789616 h 0.04858 v 1.774052 h 3.222543 V 10.1415 h -1.350825 c -0.03255,-0.2766905 -0.03255,-0.5617613 0,-0.8547288 C 38.879792,8.98838 38.858108,8.7146808 38.782128,8.465116 38.711593,8.2101277 38.551618,7.9930287 38.302054,7.8139929 38.057915,7.6295323 37.854515,7.4313013 37.691755,7.2197145 l -2.555399,2.4820192 h -0.04858 V 3.8752156 Z m 8.587072,0 v 5.4932045 h 1.896008 V 3.8752156 Z m -15.221293,0.024288 v 1.1477336 h -2.197282 v 1.4727782 h 2.197282 v 0.7487912 h -2.197282 v 1.4727783 h 2.197282 v 2.3517941 l 1.139466,1.09089 h 2.921268 l 0.903304,-0.903304 -1.138948,-1.228865 -0.724505,0.658875 c -0.754117,0.09223 -1.15575,0.02709 -1.204577,-0.195338 V 8.7415849 h 2.954342 V 7.2688066 H 28.502136 V 6.5200154 h 2.954342 V 5.0472372 H 28.502136 V 3.8995036 Z m -10.230899,0.00827 V 4.9738594 H 14.511776 V 6.715355 h 1.863453 v 5.493203 h 1.692402 V 6.7153516 c 0.217013,-0.016275 0.423256,-0.011102 0.618567,0.016016 0.195311,0.02713 0.360978,0.1276654 0.496611,0.3012753 0.135633,0.168184 0.279073,0.3201528 0.430981,0.4557847 0.157334,0.1302083 0.304134,0.2741646 0.439766,0.4314978 v 4.2886266 h 1.684652 V 7.1220429 l -0.01654,-0.024283 C 21.461258,6.8102181 21.189886,6.5473743 20.907769,6.3086602 20.631078,6.0699461 20.368234,5.7928867 20.11867,5.4782201 19.874532,5.1635499 19.562582,4.9984014 19.18281,4.9821247 18.808464,4.9604163 18.436553,4.9575816 18.067632,4.9738571 V 3.9077718 Z m 25.452192,6.3799724 v 1.920813 h 1.896008 v -1.920813 z"
         inkscape:label="かもん！" />
    </g>
  </g>
</svg>
